<svg xmlns="http://www.w3.org/2000/svg" viewBox="0 0 64 64"><path fill="#2a2f64" d="m61.82 10.17-7.16-2.19a3.11 3.11 0 0 0-3.86 2.06l-1.74 5.7-.59 1.94c-4.96-5.66-13.12-9.12-21.77-9.12C11.99 8.55 0 18.25 0 30.18c0 6.3 3.36 12.22 9.21 16.34l-1.14 7.14c-.06.35.08.7.35.91a.954.954 0 0 0 .98.13l9.35-3.88c2.58.65 5.26.98 7.96.98 5.36 0 10.47-1.28 14.86-3.68l1.65 7.27c.08.34.33.61.66.71.1.03.18.05.28.05.24 0 .48-.1.67-.27l8.6-8.11c.03-.03.05-.06.08-.09.02-.03.04-.05.06-.08.06-.08.1-.16.13-.26l10.18-33.33a3.09 3.09 0 0 0-2.06-3.84zM40.6 43.78v.08l.52 2.29c-4.22 2.42-9.18 3.71-14.42 3.71-2.65 0-5.27-.34-7.79-1a.914.914 0 0 0-.61.04l-8.05 3.35.97-6.02a.991.991 0 0 0-.42-.97C5.18 41.49 1.94 36 1.94 30.18c0-10.85 11.11-19.68 24.77-19.68 8.58 0 16.6 3.6 21.08 9.42l-7.17 23.46c-.03.11-.04.22-.03.34 0 .01 0 .04.01.06zm4.12 9.53-.41-1.83 1.77.54-1.36 1.29zm2.99-2.82-3.89-1.18-.96-4.25 8.02 2.45-3.17 2.98zm4.4-4.63L42.76 43l7.87-25.77 9.35 2.85-7.87 25.78zm9.9-32.4-1.45 4.77-9.36-2.86 1.46-4.77c.18-.6.82-.95 1.44-.76l7.15 2.18c.6.19.94.83.76 1.44z"/><path fill="#4ebce5" d="m62.01 13.46-1.45 4.77-9.36-2.86 1.46-4.77c.18-.6.82-.95 1.44-.76l7.15 2.18c.6.19.94.83.76 1.44z"/><path fill="#f16e61" d="m42.767 43 7.874-25.774 9.344 2.854-7.875 25.774z"/><path fill="#ffe4aa" d="m50.88 47.51-3.17 2.98-3.89-1.18-.96-4.25z"/><path fill="#ffdb7c" d="M40.6 43.78c-.01-.02-.01-.05-.01-.08-.01-.12 0-.23.03-.34l7.17-23.46c-4.48-5.82-12.5-9.42-21.08-9.42-13.65 0-24.77 8.83-24.77 19.68 0 5.83 3.24 11.32 8.87 15.08.31.21.48.59.42.97l-.97 6.02 8.05-3.35c.19-.08.41-.1.61-.04 2.52.66 5.14 1 7.79 1 5.24 0 10.2-1.29 14.42-3.71l-.52-2.29v-.06zM14.29 33.63c-1.9 0-3.45-1.55-3.45-3.45 0-1.9 1.55-3.45 3.45-3.45 1.9 0 3.45 1.55 3.45 3.45 0 1.9-1.55 3.45-3.45 3.45zm12.4 0c-1.9 0-3.44-1.55-3.44-3.45 0-1.9 1.54-3.45 3.44-3.45a3.45 3.45 0 0 1 3.45 3.45c.01 1.9-1.53 3.45-3.45 3.45zm8.96-3.45c0-1.9 1.54-3.45 3.44-3.45a3.45 3.45 0 0 1 0 6.9c-1.89 0-3.44-1.55-3.44-3.45z"/><path fill="#ebc15c" d="m47.78 19.91-.57 1.86c-6.56-7.35-13.38-9.34-20.51-9.34-12.59 0-22.83 7.96-22.83 17.74 0 5.16 2.92 10.07 8.04 13.48.91.64 1.4 1.76 1.23 2.88l-.42 2.59 4.86-2.03a2.877 2.877 0 0 1 1.83-.11c2.37.63 4.83.94 7.29.94 3.94 0 9.63-.84 13.98-3.68l.44 1.91c-4.22 2.42-9.18 3.71-14.42 3.71-2.65 0-5.27-.34-7.79-1a.914.914 0 0 0-.61.04l-8.05 3.35.97-6.02a.991.991 0 0 0-.42-.97C5.18 41.49 1.94 36 1.94 30.18c0-10.85 11.11-19.68 24.77-19.68 8.58-.01 16.59 3.59 21.07 9.41z"/><path fill="#e25e5a" d="m46.09 52.02-1.37 1.29-.41-1.83z"/><path fill="#36a8d9" d="m62.01 13.46-1.45 4.77-2.16-.66 1.54-5.03c.11-.34.04-.69-.15-.96l1.45.45c.61.18.95.82.77 1.43z"/><path fill="#e25e5a" d="m49.953 45.198 7.874-25.773 2.152.657-7.874 25.774z"/><path fill="#f0d299" d="m50.88 47.51-3.17 2.98-2.3-.7 3.17-2.97z"/><path fill="#2a2f64" d="M14.29 26.72c-1.9 0-3.45 1.55-3.45 3.45 0 1.9 1.55 3.45 3.45 3.45 1.9 0 3.45-1.55 3.45-3.45 0-1.89-1.55-3.45-3.45-3.45zm0 4.97c-.83 0-1.51-.68-1.51-1.51s.68-1.51 1.51-1.51 1.51.68 1.51 1.51c.01.83-.67 1.51-1.51 1.51z"/><circle cx="14.29" cy="30.18" r="1.51" fill="#edeced"/><path fill="#2a2f64" d="M26.69 26.72c-1.9 0-3.44 1.55-3.44 3.45 0 1.9 1.54 3.45 3.44 3.45a3.45 3.45 0 0 0 3.45-3.45 3.444 3.444 0 0 0-3.45-3.45zm0 4.97c-.83 0-1.5-.68-1.5-1.51s.67-1.51 1.5-1.51 1.51.68 1.51 1.51c.01.83-.67 1.51-1.51 1.51z"/><path fill="#edeced" d="M28.21 30.18c0 .83-.68 1.51-1.51 1.51s-1.5-.68-1.5-1.51.67-1.51 1.5-1.51c.83-.01 1.51.67 1.51 1.51z"/><path fill="#2a2f64" d="M39.1 26.72c-1.9 0-3.44 1.55-3.44 3.45 0 1.9 1.54 3.45 3.44 3.45a3.45 3.45 0 0 0 3.45-3.45c0-1.89-1.54-3.45-3.45-3.45zm0 4.97c-.82 0-1.5-.68-1.5-1.51s.68-1.51 1.5-1.51c.83 0 1.51.68 1.51 1.51s-.68 1.51-1.51 1.51z"/><path fill="#edeced" d="M40.61 30.18c0 .83-.68 1.51-1.51 1.51-.82 0-1.5-.68-1.5-1.51s.68-1.51 1.5-1.51c.83-.01 1.51.67 1.51 1.51z"/></svg>