<svg xmlns="http://www.w3.org/2000/svg" width="200" height="200"><path fill="#E6E5E5" d="M40.501 29.985h113.486v152.598H40.501z"/><path fill="#242D3C" d="M40.501 17.417h113.486v12.568H40.501z"/><path fill="#16C6CC" d="M40.501 80.851h113.486v50.866H40.501z"/><g fill="#FFF"><path d="m100.29 100.393-16.593 16.586h33.169z"/><path d="m88.446 106.147-10.823 10.832h21.658zM95.396 99.063a3.477 3.477 0 0 1-3.469 3.476 3.475 3.475 0 1 1 3.469-3.476z"/></g><path fill="#F15424" d="M49.231 140.443h26.191v20.938H49.231zM84.151 140.443h26.188v20.938H84.151zM119.066 140.443h26.191v20.938h-26.191zM49.231 58.281h96.027v4.556H49.231z"/><path fill="#242D3C" d="M49.231 163.641h26.191v2.277H49.231zM49.231 168.178h26.191v2.275H49.231zM49.231 172.717h13.095v2.275H49.231zM84.148 163.641h26.19v2.277h-26.19zM84.151 168.178h26.188v2.275H84.151zM84.151 172.717h13.093v2.275H84.151zM119.066 163.641h26.191v2.277h-26.191zM119.066 168.178h26.191v2.275h-26.191zM119.066 172.717h13.096v2.275h-13.096zM65.535 70.704h63.431v2.281H65.535z"/><path fill="#16C6CC" d="M49.232 37.851h96.024v12.563H49.232z"/><path fill="#242D3C" d="M59.901 42.995H70.57v2.276H59.901zM81.243 42.995h10.664v2.276H81.243zM102.581 42.995h10.664v2.276h-10.664zM123.918 42.995h10.668v2.276h-10.668z"/><path fill="#E6E5E5" d="M136.563 86.751h49.511V115h-49.511z"/><path fill="#242D3C" d="M143.729 106.097h5.025v3.95h-5.025z"/><path fill="#CCCBCA" d="M151.268 98.666h5.025v11.381h-5.025zM158.806 103.159h5.023v6.888h-5.023z"/><path fill="#F15424" d="M166.344 91.706h5.023v18.341h-5.023z"/><path fill="#CCCBCA" d="M173.88 96.273h5.025v13.773h-5.025z"/><path fill="#242D3C" d="M61.191 149.777h2.271v2.271h-2.271zM58.833 152.049h-2.356v-2.271h2.356v2.271zm-4.713 0h-2.356v-2.271h2.356v2.271zm-4.713 0h-2.356v-2.271h2.356v2.271zm-4.714 0h-2.356v-2.271h2.356v2.271zm-4.713 0h-2.356v-2.271h2.356v2.271zm-4.714 0H32.91v-2.271h2.356v2.271zm-4.713 0h-2.357v-2.271h2.357v2.271zm-4.713 0h-2.357v-2.271h2.357v2.271zm-4.714 0h-2.357v-2.271h2.357v2.271zm-4.714 0h-2.356v-2.271h2.356v2.271zm-4.712 0H9.342v-2.271H11.7v2.271zm-4.715 0H4.628v-2.271h2.356v2.271zM0 149.777h2.272v2.271H0zM2.272 147.503H0v-2.274h2.272v2.274zm0-4.549H0v-2.275h2.272v2.275zm0-4.55H0v-2.274h2.272v2.274zm0-4.549H0v-2.274h2.272v2.274zm0-4.548H0v-2.274h2.272v2.274zm0-4.549H0v-2.274h2.272v2.274zm0-4.549H0v-2.275h2.272v2.275zm0-4.55H0v-2.274h2.272v2.274zm0-4.549H0v-2.274h2.272v2.274zm0-4.548H0v-2.274h2.272v2.274zM0 99.741h2.272v2.271H0zM58.833 102.013h-2.356v-2.271h2.356v2.271zm-4.713 0h-2.356v-2.271h2.356v2.271zm-4.714 0h-2.355v-2.271h2.355v2.271zm-4.713 0h-2.356v-2.271h2.356v2.271zm-4.713 0h-2.356v-2.271h2.356v2.271zm-4.714 0H32.91v-2.271h2.356v2.271zm-4.713 0h-2.357v-2.271h2.357v2.271zm-4.713 0h-2.357v-2.271h2.357v2.271zm-4.714 0h-2.357v-2.271h2.357v2.271zm-4.714 0h-2.357v-2.271h2.357v2.271zm-4.712 0H9.342v-2.271H11.7v2.271zm-4.715 0H4.628v-2.271h2.356v2.271zM62.326 102.013h-1.135v-2.272h2.271v2.272zM63.462 147.503h-2.271v-2.274h2.271v2.274zm0-4.549h-2.271v-2.275h2.271v2.275zm0-4.55h-2.271v-2.274h2.271v2.274zm0-4.549h-2.271v-2.274h2.271v2.274zm0-4.548h-2.271v-2.274h2.271v2.274zm0-4.549h-2.271v-2.274h2.271v2.274zm0-4.549h-2.271v-2.275h2.271v2.275zm0-4.55h-2.271v-2.274h2.271v2.274zm0-4.549h-2.271v-2.274h2.271v2.274zm0-4.548h-2.271v-2.274h2.271v2.274z"/><path fill="#16C6CC" d="M1.136 55.832h33.201v25.02H1.136z"/><path fill="#FFF" d="M4.839 64.94h25.795v2.276H4.839zM4.839 60.387h25.795v2.275H4.839zM4.839 69.476h25.795v2.275H4.839zM4.839 74.015h12.898v2.275H4.839z"/><path fill="#242D3C" d="M162.408 66.238H200v2.275h-37.592zM162.408 61.701H200v2.275h-37.592zM162.408 57.161h18.797v2.281h-18.797z"/><g fill="#242D3C"><path d="m179.08 167.122-10.766-26.679 26.672 10.766-10.383 5.521z"/><path d="m185.056 154.18-3.003 3.011 8.89 8.876 2.997-3.006z"/></g></svg>