<svg xmlns="http://www.w3.org/2000/svg" viewBox="0 0 48 48"><g data-name="Design Product"><polygon fill="#f6ccaf" points="17 23 11 29 1 29 7 23 17 23"/><path fill="#ffdec7" d="M17,23l-4,4H10.66A2.34,2.34,0,0,1,9,23Z"/><polygon fill="#edb996" points="17 23 17 47 7 47 7 29 11 29 17 23"/><path fill="#f6ccaf" d="M11,31l6-6V45a8,8,0,0,1-8-8V31Z"/><polygon fill="#edb996" points="41 29 41 47 17 47 17 23 23 29 41 29"/><path fill="#f6ccaf" d="M41,31V45H39A19,19,0,0,1,20.12,28.12L23,31Z"/><polygon fill="#f6ccaf" points="47 29 23 29 17 23 41 23 47 29"/><path fill="#ffdec7" d="M45,27H29.66A13.65,13.65,0,0,1,20,23c-.1-.1.35,0,21,0Z"/><path fill="#db5669" d="M29,17v6H19V17A14.74,14.74,0,0,0,29,17Z"/><path fill="#f6ccaf" d="M29,17a14.64,14.64,0,0,1-10,0l2.64-6.33a14.73,14.73,0,0,0,4.74.05C29.24,17.57,28.81,16.53,29,17Z"/><path fill="#374f68" d="M26.38,10.72a14.67,14.67,0,0,1-4.74-.05L24,5Z"/><path fill="#f26674" d="M29,17v4H24.44A3.44,3.44,0,0,1,21,17.56,14.08,14.08,0,0,0,29,17Z"/><path fill="#ffdec7" d="M29,17a14.09,14.09,0,0,1-8,.56l1.74-6.74a14.51,14.51,0,0,0,3.64-.1C29.24,17.57,28.81,16.53,29,17Z"/><path fill="#425b72" d="M26.38,10.72a14.54,14.54,0,0,1-3.64.1c.1-.1-.26.65,1.84-4.42C25.28,8.06,25.57,8.79,26.38,10.72Z"/><path fill="#dad7e5" d="M39,3a2,2,0,0,0-3.72-1H12.72a2,2,0,1,0,0,2H17.1a13,13,0,0,0-6,9.2,2,2,0,1,0,2,.16,11,11,0,0,1,21.72,0,2,2,0,1,0,2-.16,13,13,0,0,0-6-9.2h4.38A2,2,0,0,0,39,3Z"/></g></svg>