<svg xmlns="http://www.w3.org/2000/svg" width="288" height="288"><svg xmlns="http://www.w3.org/2000/svg" width="288" height="288" viewBox="0 0 512 512"><path fill="#72f7ff" d="M30 10h312c11.047 0 20 8.953 20 20v331.5H30c-11.047 0-20-8.953-20-20V30c0-11.043 8.953-20 20-20zm0 0" class="color72d8ff svgShape"/><path fill="#fff" d="M30 361.5h332v-287H10v267c0 11.047 8.953 20 20 20zm0 0" class="colorfff svgShape"/><path fill="#f0f0f0" d="M58 122.5h256v168H58zm0 0" class="coloredf2fa svgShape"/><path fill="#fc5185" d="M192 240.129h256v168H192zm0 0" class="colorff5d5d svgShape"/><path fill="#43dde6" d="M489.07 379.98 340.074 340.06l39.922 148.996 21.195-49.028 61.957 61.957L502 463.137l-61.957-61.957zm0 0" class="color4dbaf6 svgShape"/><path fill="#364f6b" d="M48 250.5c0 5.523 4.477 10 10 10s10-4.477 10-10v-15c0-5.523-4.477-10-10-10s-10 4.477-10 10zm10-100c5.523 0 10-4.477 10-10v-15c0-5.523-4.477-10-10-10s-10 4.477-10 10v15c0 5.523 4.477 10 10 10zm-10 45c0 5.523 4.477 10 10 10s10-4.477 10-10v-15c0-5.523-4.477-10-10-10s-10 4.477-10 10zm10 105h15c5.523 0 10-4.477 10-10s-4.477-10-10-10H58c-5.523 0-10 4.477-10 10s4.477 10 10 10zm256-152c5.523 0 10-4.477 10-10v-15c0-5.523-4.477-10-10-10s-10 4.477-10 10v15c0 5.523 4.477 10 10 10zm-39-16c5.523 0 10-4.477 10-10s-4.477-10-10-10h-15c-5.523 0-10 4.477-10 10s4.477 10 10 10zm-165-20H95c-5.523 0-10 4.477-10 10s4.477 10 10 10h15c5.523 0 10-4.477 10-10s-4.477-10-10-10zm110 20c5.523 0 10-4.477 10-10s-4.477-10-10-10h-15c-5.523 0-10 4.477-10 10s4.477 10 10 10zm84 61c0 5.523 4.477 10 10 10s10-4.477 10-10v-15c0-5.523-4.477-10-10-10s-10 4.477-10 10zm-139-61c5.523 0 10-4.477 10-10s-4.477-10-10-10h-15c-5.523 0-10 4.477-10 10s4.477 10 10 10zm-62 158c0 5.523 4.477 10 10 10h15c5.523 0 10-4.477 10-10s-4.477-10-10-10h-15c-5.523 0-10 4.477-10 10zM324.332 32.25H186c-5.523 0-10 4.477-10 10s4.477 10 10 10h138.332c5.523 0 10-4.477 10-10s-4.477-10-10-10zm-237.504.004a10.02 10.02 0 0 0-7.066 2.93 10.046 10.046 0 0 0-2.934 7.07c0 2.629 1.07 5.21 2.934 7.07a10.07 10.07 0 0 0 7.066 2.93c2.633 0 5.211-1.07 7.07-2.93a10.08 10.08 0 0 0 2.93-7.07c0-2.64-1.066-5.211-2.93-7.07a10.01 10.01 0 0 0-7.07-2.93zm-41.156 0c-2.633 0-5.211 1.059-7.07 2.93-1.872 1.859-2.93 4.441-2.93 7.07s1.058 5.21 2.93 7.07c1.859 1.86 4.43 2.93 7.07 2.93 2.629 0 5.2-1.07 7.066-2.93 1.86-1.86 2.934-4.441 2.934-7.07s-1.07-5.211-2.934-7.07a10.034 10.034 0 0 0-7.066-2.93zm82.328 0a10.08 10.08 0 0 0-7.07 2.93 10.059 10.059 0 0 0-2.93 7.07c0 2.629 1.07 5.21 2.93 7.07 1.86 1.86 4.441 2.93 7.07 2.93s5.21-1.07 7.07-2.93a10.08 10.08 0 0 0 2.93-7.07c0-2.64-1.07-5.211-2.93-7.07a10.08 10.08 0 0 0-7.07-2.93zM10 300.504c2.629 0 5.21-1.07 7.07-2.93 1.86-1.86 2.93-4.441 2.93-7.07s-1.07-5.211-2.93-7.07c-1.86-1.86-4.441-2.93-7.07-2.93s-5.21 1.07-7.07 2.93c-1.86 1.859-2.93 4.441-2.93 7.07s1.07 5.21 2.93 7.07a10.08 10.08 0 0 0 7.07 2.93zm0 0" class="color000 svgShape"/><path fill="#364f6b" d="m509.07 456.063-51.547-51.547 35.516-15.356a10 10 0 0 0-1.383-18.836L458 361.304V240.13c0-5.524-4.477-10-10-10h-76V30c0-16.543-13.457-30-30-30H30C13.457 0 0 13.457 0 30v220c0 5.523 4.477 10 10 10s10-4.477 10-10V84.5h332v145.629H192c-5.523 0-10 4.476-10 10V280.5h-14c-5.523 0-10 4.477-10 10s4.477 10 10 10h14v51H30c-5.516 0-10-4.484-10-10V330c0-5.523-4.477-10-10-10s-10 4.477-10 10v11.5c0 16.543 13.457 30 30 30h152v36.629c0 5.52 4.477 10 10 10h158.637l19.699 73.516a9.996 9.996 0 0 0 8.93 7.382 9.997 9.997 0 0 0 9.91-6.004l15.355-35.515 51.547 51.547a10 10 0 0 0 14.14 0l38.852-38.848c3.907-3.906 3.907-10.238 0-14.144zM20 64.5V30c0-5.516 4.484-10 10-10h312c5.516 0 10 4.484 10 10v34.5zm182 333.629v-148h236v105.816l-95.34-25.547a10.001 10.001 0 0 0-12.246 12.25l14.863 55.48zm261.148 89.715-54.886-54.887a10.009 10.009 0 0 0-7.07-2.93 10.005 10.005 0 0 0-9.18 6.031l-9.793 22.657-28.004-104.512 104.512 28.004L436.074 392a10.002 10.002 0 0 0-3.102 16.25l54.887 54.887zm0 0" class="color000 svgShape"/></svg></svg>