<svg xmlns="http://www.w3.org/2000/svg" xmlns:xlink="http://www.w3.org/1999/xlink" viewBox="0 0 3652 2739" id="freelance-working-team-sitting-in-co-working-place-and-doing-discussion"><defs><linearGradient id="a" x1="-4585.66" x2="-4576.89" y1="1650.47" y2="2389.55" gradientTransform="matrix(-1 0 0 1 -1762.36 0)" gradientUnits="userSpaceOnUse"><stop offset=".08" stop-color="#b66d42"></stop><stop offset="1" stop-color="#f7b96d"></stop></linearGradient><linearGradient id="m" x1="-4272.2" x2="-4263.43" y1="1646.75" y2="2385.83" xlink:href="#a"></linearGradient><linearGradient id="n" x1="-4437.95" x2="-4429.17" y1="1648.71" y2="2387.8" xlink:href="#a"></linearGradient><linearGradient id="o" x1="-4754.49" x2="-3759.91" y1="1561.62" y2="1561.62" gradientTransform="matrix(-1 0 0 1 -1762.36 0)" gradientUnits="userSpaceOnUse"><stop offset="0" stop-color="#f7b96d"></stop><stop offset=".92" stop-color="#b66d42"></stop></linearGradient><linearGradient id="e" x1="-4444.96" x2="-4027.91" y1="1742.1" y2="1742.1" gradientTransform="matrix(-1 0 0 1 -1762.36 0)" gradientUnits="userSpaceOnUse"><stop offset=".06" stop-color="#abc1c1"></stop><stop offset="1" stop-color="#7c7c7c"></stop></linearGradient><linearGradient id="d" x1="-4130.43" x2="-4147.49" y1="738.78" y2="783.21" gradientTransform="matrix(-.99 -.15 -.15 .99 -1515.95 288.65)" gradientUnits="userSpaceOnUse"><stop offset="0" stop-color="#ffd3b0"></stop><stop offset=".28" stop-color="#fdcfaa"></stop><stop offset=".65" stop-color="#f6c29a"></stop><stop offset=".99" stop-color="#edb285"></stop></linearGradient><linearGradient id="v" x1="-4076.63" x2="-4118.34" y1="286.06" y2="315.88" gradientTransform="matrix(-.97 -.24 -.24 .97 -1399.04 455.77)" xlink:href="#d"></linearGradient><linearGradient id="w" x1="-4236.43" x2="-3930.59" y1="1628.6" y2="1628.6" xlink:href="#e"></linearGradient><linearGradient id="y" x1="-3454.55" x2="-3177" y1="-2029.66" y2="-2129.89" gradientTransform="scale(-1 1) rotate(-30.7 2498.571 -1723.5)" gradientUnits="userSpaceOnUse"><stop offset="0" stop-color="#ff8f1b"></stop><stop offset=".98" stop-color="#ffbe61"></stop></linearGradient><linearGradient id="C" x1="-3262.44" x2="-3181.04" y1="-1994.23" y2="-1994.23" gradientTransform="scale(-1 1) rotate(-30.7 2498.571 -1723.5)" gradientUnits="userSpaceOnUse"><stop offset="0" stop-color="#e16f00"></stop><stop offset=".98" stop-color="#f89e42"></stop></linearGradient><linearGradient id="j" x1="6904.29" x2="6928.38" y1="972.94" y2="972.94" gradientTransform="matrix(1.07 .02 -.06 1 -4833.17 -123.17)" gradientUnits="userSpaceOnUse"><stop offset="0" stop-color="#0b5b75"></stop><stop offset="1" stop-color="#56b8a0"></stop></linearGradient><linearGradient id="D" x1="-3226" x2="-3196.43" y1="-1881.99" y2="-1881.99" gradientTransform="scale(-1 1) rotate(-30.7 2498.571 -1723.5)" gradientUnits="userSpaceOnUse"><stop offset="0" stop-color="#edac80"></stop><stop offset=".98" stop-color="#f7b98f"></stop></linearGradient><linearGradient id="F" x1="-3918.45" x2="-3813.75" y1="2355.99" y2="2355.99" gradientTransform="matrix(-1 0 0 1 -1762.36 0)" gradientUnits="userSpaceOnUse"><stop offset="0" stop-color="#bc690b"></stop><stop offset="1" stop-color="#d89d3d"></stop></linearGradient><linearGradient id="G" x1="-4119.15" x2="-4013.98" y1="2373.44" y2="2373.44" gradientTransform="matrix(-1 0 0 1 -1762.36 0)" gradientUnits="userSpaceOnUse"><stop offset="0" stop-color="#cc791b"></stop><stop offset="1" stop-color="#e8ad4d"></stop></linearGradient><linearGradient id="L" x1="1215.2" x2="1223.97" y1="1672.52" y2="2411.61" xlink:href="#a"></linearGradient><linearGradient id="M" x1="1528.66" x2="1537.44" y1="1668.8" y2="2407.89" xlink:href="#a"></linearGradient><linearGradient id="N" x1="1362.92" x2="1371.69" y1="1670.77" y2="2409.86" xlink:href="#a"></linearGradient><linearGradient id="O" x1="814.19" x2="1939.94" y1="1520.07" y2="1520.07" xlink:href="#a"></linearGradient><linearGradient id="g" x1="1561.63" x2="1614.89" y1="1446.12" y2="1437.92" gradientTransform="rotate(-14.18 1909.045 1628.642)" gradientUnits="userSpaceOnUse"><stop offset=".01" stop-color="#edb285"></stop><stop offset=".35" stop-color="#f6c29a"></stop><stop offset=".72" stop-color="#fdcfaa"></stop><stop offset="1" stop-color="#ffd3b0"></stop></linearGradient><linearGradient id="Q" x1="1328.82" x2="1328.82" y1="904.81" y2="1049.36" gradientUnits="userSpaceOnUse"><stop offset="0" stop-color="#301604"></stop><stop offset="1" stop-color="#542c11"></stop></linearGradient><linearGradient id="R" x1="1413.69" x2="1440.63" y1="1291.85" y2="1092.76" gradientTransform="rotate(-1.54 1868.228 1638.142)" xlink:href="#g"></linearGradient><linearGradient id="T" x1="1222.23" x2="2639.99" y1="1290.32" y2="1290.32" gradientTransform="matrix(-1 .03 .03 1 3269.69 -37.61)" gradientUnits="userSpaceOnUse"><stop offset="0" stop-color="#f7dfc1"></stop><stop offset="1" stop-color="#ca9e67"></stop></linearGradient><linearGradient id="U" x1="1386.81" x2="1409.13" y1="1094.2" y2="1038.03" gradientTransform="rotate(180 1407.42 1047.29)" xlink:href="#d"></linearGradient><linearGradient id="V" x1="1343.12" x2="1563.07" y1="860.58" y2="860.58" gradientTransform="rotate(-1.54 1868.228 1638.142)" xlink:href="#g"></linearGradient><linearGradient id="i" x1="4729.68" x2="4759.74" y1="1113.27" y2="1144.51" gradientTransform="matrix(-.81 -.22 -.12 .93 5481.26 851.21)" gradientUnits="userSpaceOnUse"><stop offset="0" stop-color="#0b2975"></stop><stop offset="1" stop-color="#56b8a0"></stop></linearGradient><linearGradient id="X" x1="4846.33" x2="4878.54" y1="1137.87" y2="1171.35" gradientTransform="matrix(-.81 -.21 -.12 .91 5482.2 853.8)" xlink:href="#i"></linearGradient><linearGradient id="Z" x1="1250.46" x2="1466.88" y1="1550.26" y2="1478.72" xlink:href="#g"></linearGradient><linearGradient id="aa" x1="1924.74" x2="1964.97" y1="1327.94" y2="1297.88" gradientTransform="scale(-1 1) rotate(58 23.678 -1596.281)" xlink:href="#d"></linearGradient><linearGradient id="ab" x1="1502.54" x2="1715.64" y1="2079.3" y2="2131.08" xlink:href="#g"></linearGradient><linearGradient id="ac" x1="1357.26" x2="1619.49" y1="2074.89" y2="2127.45" xlink:href="#g"></linearGradient><linearGradient id="ad" x1="2080.39" x2="2108.98" y1="555.76" y2="555.76" gradientTransform="matrix(-1.07 .02 .06 1 3070.81 -123.17)" xlink:href="#j"></linearGradient><linearGradient id="aj" x1="1412.6" x2="1370.89" y1="1105.55" y2="1135.36" gradientTransform="rotate(-7.23 1837.603 1973.664)" xlink:href="#d"></linearGradient><linearGradient id="ak" x1="952.78" x2="1975.96" y1="1588.33" y2="1588.33" gradientUnits="userSpaceOnUse"><stop offset="0" stop-color="#f3a750"></stop><stop offset=".4" stop-color="#f2a54f"></stop><stop offset=".54" stop-color="#ef9e49"></stop><stop offset=".64" stop-color="#e89340"></stop><stop offset=".73" stop-color="#e08233"></stop><stop offset=".8" stop-color="#d46c21"></stop><stop offset=".86" stop-color="#c7520d"></stop></linearGradient><radialGradient id="p" cx="-4521.32" cy="1763.48" r="431.15" gradientTransform="matrix(-1 0 0 1 -1762.36 0)" xlink:href="#a"></radialGradient><radialGradient id="q" cx="-4312.49" cy="1711.76" r="240.58" gradientTransform="matrix(-1 0 0 1 -1762.36 0)" gradientUnits="userSpaceOnUse"><stop offset=".01" stop-color="#1b2129"></stop><stop offset="1" stop-color="#353d4a"></stop></radialGradient><radialGradient id="c" cx="-4647.19" cy="1908.34" r="233.23" gradientTransform="matrix(-1 0 0 1 -1762.36 0)" gradientUnits="userSpaceOnUse"><stop offset=".01" stop-color="#162030"></stop><stop offset="1" stop-color="#353d4a"></stop></radialGradient><radialGradient id="r" cx="-4654.68" cy="1893.91" r="170.9" gradientTransform="matrix(-1 0 0 1 -1762.36 0)" gradientUnits="userSpaceOnUse"><stop offset=".01" stop-color="#010b1b"></stop><stop offset="1" stop-color="#202835"></stop></radialGradient><radialGradient id="b" cx="-4399.18" cy="1463.47" r="252.78" gradientTransform="matrix(-1 0 0 1 -1762.36 0)" gradientUnits="userSpaceOnUse"><stop offset=".03" stop-color="#e4eced"></stop><stop offset="1" stop-color="#fff"></stop></radialGradient><radialGradient id="s" cx="-4632.97" cy="1551.09" r="217.85" xlink:href="#b"></radialGradient><radialGradient id="t" cx="-4202.79" cy="2040.75" r="227.32" xlink:href="#c"></radialGradient><radialGradient id="f" cx="-4327.58" cy="1215.25" r="42.8" gradientTransform="matrix(-1 0 0 1 -1762.36 0)" gradientUnits="userSpaceOnUse"><stop offset=".03" stop-color="#c4cdce"></stop><stop offset="1" stop-color="#e3e3e3"></stop></radialGradient><radialGradient id="x" cx="-4150.75" cy="2101.68" r="211.17" gradientTransform="matrix(-1 0 0 1 -1762.36 0)" gradientUnits="userSpaceOnUse"><stop offset=".01" stop-color="#353d4a"></stop><stop offset="1" stop-color="#353d4a"></stop></radialGradient><radialGradient id="B" cx="-3235.16" cy="-1973.93" r="49.13" gradientTransform="scale(-1 1) rotate(-30.7 2498.571 -1723.5)" gradientUnits="userSpaceOnUse"><stop offset=".42" stop-color="#f7b98f"></stop><stop offset="1" stop-color="#ffd3b0"></stop></radialGradient><radialGradient id="E" cx="-1768.17" cy="-3500.74" r="50.31" gradientTransform="scale(-1 1) rotate(-51.9 2467.692 -342.875)" gradientUnits="userSpaceOnUse"><stop offset=".42" stop-color="#f7bc8f"></stop><stop offset="1" stop-color="#ffd6b0"></stop></radialGradient><radialGradient id="H" cx="-4371.3" cy="1202.01" r="19.49" xlink:href="#f"></radialGradient><radialGradient id="I" cx="-4390" cy="1235.76" r="75.04" fx="-4400.791" xlink:href="#f"></radialGradient><radialGradient id="J" cx="-4332.98" cy="1213.97" r="38.22" xlink:href="#f"></radialGradient><radialGradient id="K" cx="-4082.78" cy="1626.48" r="14.88" gradientTransform="matrix(-1 0 0 1 -1762.36 0)" gradientUnits="userSpaceOnUse"><stop offset=".06" stop-color="#b7cdce"></stop><stop offset="1" stop-color="#cbdfe0"></stop></radialGradient><radialGradient id="P" cx="1259.5" cy="-1934.13" r="409.6" gradientTransform="matrix(1 0 0 1.75 0 5137.95)" xlink:href="#a"></radialGradient><radialGradient id="h" cx="1332.92" cy="853.03" r="134.64" gradientUnits="userSpaceOnUse"><stop offset="0" stop-color="#542c11"></stop><stop offset="1" stop-color="#301604"></stop></radialGradient><radialGradient id="W" cx="1362.66" cy="810.88" r="341.22" xlink:href="#h"></radialGradient><radialGradient id="k" cx="785.61" cy="7222.42" r="252.38" gradientTransform="matrix(1 0 0 .59 0 -2826.15)" gradientUnits="userSpaceOnUse"><stop offset=".01" stop-color="#353d4a"></stop><stop offset="1" stop-color="#48515e"></stop></radialGradient><radialGradient id="af" cx="988.82" cy="1059.7" r="325.51" xlink:href="#k"></radialGradient><radialGradient id="ah" cx="1888.49" cy="1583.32" r="137.5" gradientTransform="matrix(-.58 -.82 .82 -.58 934.17 3593.26)" xlink:href="#k"></radialGradient><radialGradient id="ai" cx="767.99" cy="-4243.25" r="129.94" gradientTransform="matrix(1 0 0 3.02 0 13758.28)" xlink:href="#k"></radialGradient><radialGradient id="l" cx="2203.74" cy="33682.13" r="542.76" gradientTransform="matrix(1.1 0 0 .1 -1198.01 -1056.59)" gradientUnits="userSpaceOnUse"><stop offset="0" stop-color="#edd0bb"></stop><stop offset="1" stop-color="#fff"></stop></radialGradient><radialGradient id="al" cx="3392.39" cy="33780.83" r="542.76" gradientTransform="matrix(1.18 0 0 .1 -1498.8 -1056.59)" xlink:href="#l"></radialGradient><clipPath id="u"><path fill="none" d="M2741.73,1232.08c27.32,3.79,36.05,31.7,43.78,69.71,25.29,124.39,27.62,360.75,14.87,369.44-91.42,62.31-287,60.22-295.41,27-8.09-31.78,145.08-73.6,204.57-88.79,8.22-2.1-45.18-201.55-22.88-317.82C2693.5,1255.93,2719,1228.93,2741.73,1232.08Z"></path></clipPath><clipPath id="z"><path fill="none" d="M2518.66,962.47c4.46,5.57-22.43,50.07-38.11,91.45-3.12,8.24,24.36,16.47,27.41,19.81,3.08,1.83,1.25-2.29-.43-8.48,15.72-14.9,41.43-85.16,27.85-98.78C2532,963.1,2525.12,970.42,2518.66,962.47Z"></path></clipPath><clipPath id="A"><path fill="none" d="M2583.24,1140.08c23.08-15.88,38.74-32.5,50.86-45.6.63,41.35-16.85,73.4-46,88.78C2580.76,1158.46,2583.24,1140.08,2583.24,1140.08Z"></path></clipPath><clipPath id="S"><path fill="none" d="M1461.49,1091.15l-30.59,40.61L1372,1118.12,1356.83,1097l-70.3,43.91L1186.71,1462l63.78,3.19s49.62-205.45,123.93-12.9c25.64,26.35,72,44.72,81,19.44,45.88-128.1,40.73-5,40.73-5l51.6-16.13-23.66-321.32Z"></path></clipPath><clipPath id="Y"><path fill="none" d="M1454.08,872.05c.89-4.86,33.23,39.34,31.46,44.22-1.54,4.19-19.1,15.52-22.27,12.37C1460.78,926.16,1452.7,879.6,1454.08,872.05Z"></path></clipPath><clipPath id="ae"><path fill="none" d="M623.67,1142.28c32.29-30.78,57.75-70.08,64.47-110.36,19.94-119.51-101.95-239.61-101.95-239.61L478.32,1084.05l9.31,49.34,206.43,300S670.12,1249.09,623.67,1142.28Z"></path></clipPath><clipPath id="ag"><polygon fill="none" points="639.88 696.59 666.76 637.92 802.31 656.14 876.8 730.54 797.79 703.72 639.88 696.59"></polygon></clipPath></defs><g data-name="—ëîé_1"><polygon fill="url(#a)" points="2765.36 1789.6 2920.58 2390.69 2912.23 2389.95 2715.76 1775.74 2765.36 1789.6"></polygon><polygon fill="url(#m)" points="2557.47 1789.6 2402.25 2390.69 2410.61 2389.95 2607.07 1775.74 2557.47 1789.6"></polygon><polygon fill="url(#n)" points="2657.98 1774.12 2730.42 2390.69 2722.24 2388.83 2610.71 1753.67 2657.98 1774.12"></polygon><path fill="url(#o)" d="M2741.37,1189.59c-123.22-26-59,225.18-110.6,396.7-50.87,169.22-358,161.49-234.76,304.9,43.12,50.17,415.73,74,541.82-18C3088.84,1763,2892.73,1221.52,2741.37,1189.59Z"></path><path fill="url(#p)" d="M2799.45,1285.43c60.63,116,224.69,435.74,98.59,515-16.46,10.34-95.17,7.08-120.78,21.93-146.18,84.8-401.19,50.37-401.19,50.37C2426.31,1842.51,2799.45,1285.43,2799.45,1285.43Z"></path><path fill="url(#q)" d="M2624.5,1664.31c22.13-103.26,88.42-165.1,154.92-99.64,16.24,16,79.91,69.42,84.75,90s-26.82,97.55-35.26,100.7-111.26,13.84-120.77,17.13-195,79-254.92,71-127.6,17-164.08,2.49-34.74-46.79-13.88-64.63S2490.73,1643.66,2624.5,1664.31Z"></path><path fill="url(#c)" d="M2672.68,1688.4c22.13-103.26,88.42-165.1,154.92-99.64,16.24,16,79.91,69.42,84.75,90s-26.82,97.55-35.26,100.7-111.27,13.84-120.77,17.13S2496,1919,2367.27,1890.9c-33.3-7.27-27.53-55.12-6.68-73S2538.91,1667.75,2672.68,1688.4Z"></path><path fill="url(#r)" d="M2912.35,1678.8c4.85,20.62-26.82,97.55-35.26,100.7s-111.27,13.84-120.77,17.13c-6.85,2.38-139.11,64.91-260.63,89.12,70.12-30.43,172.5-67.84,258.76-106.24C2831.26,1745.31,2878.3,1763.91,2912.35,1678.8Z"></path><path fill="url(#b)" d="M2676.78,1179.56c27.31,3.8,46.32,31,43.78,69.71-2,30.45-18.21,305.65-25.17,319.43-42.94,85-178.32,141.81-202.11,117.1-30-31.14,63.67-74.85,111.44-147.87,4.64-7.1-5.31-182.58,17-298.85C2628.55,1203.41,2654.05,1176.41,2676.78,1179.56Z"></path><path fill="url(#s)" d="M2598,1162c70.95-34.65,170.51,61.28,194.27,108.58,72.4,144.18,107.66,366.23,111.84,378.23s-220,.91-229.43-25-84.61-200-100.33-231.31C2554.3,1352.6,2527,1196.7,2598,1162Z"></path><path fill="url(#t)" d="M2347.54,1917.24C2339,2033,2232,2175.64,2157,2369.57c-14.48-2.83-32.37-1.61-41.39-11.84,11.9-30.82,70.35-214.15,80.2-261.1,54.53-260,54.78-303.67,86.95-320C2311.74,1761.86,2353.3,1839.29,2347.54,1917.24Z"></path><g clip-path="url(#u)"><rect width="316.25" height="504.61" x="2496.88" y="1228.93" fill="#fff"></rect><path fill="#fff" d="M2521.86,1565.14c-1,64.09,16.12,122.39,44.55,164.83q2.67,4,5.46,7.76v-3.1h216V1741q2.91-3.7,5.7-7.6a236.51,236.51,0,0,0,20.13-34.05q2.24-4.59,4.32-9.35h-3.75V1439.82h3.35a235.41,235.41,0,0,0-19.09-34.64c-28.42-42.44-68.18-69-112.53-69.7C2597.27,1334.14,2523.8,1437,2521.86,1565.14Z"></path><path fill="#fefefe" d="M2527.6,1565.23c-.93,61.79,15.56,118,43,158.92q5.14,7.68,10.78,14.61v-4.13h197v7.11q5.84-6.75,11.21-14.27a228.1,228.1,0,0,0,19.41-32.84q4.3-8.87,8-18.33h-2.77V1463h6q-3.42-9.57-7.47-18.57a228.15,228.15,0,0,0-18.41-33.4c-27.41-40.92-65.74-66.56-108.5-67.2C2600.32,1342.49,2529.47,1441.64,2527.6,1565.23Z"></path><path fill="#fdfefe" d="M2533.35,1565.31c-.9,59.51,15,113.63,41.37,153q5,7.38,10.38,14.07,2.7,3.33,5.53,6.48v-4.26h184.15v.65q5.61-6.51,10.79-13.75c13.79-19.29,25.06-42.34,33-68h-4.33V1485.78h6.87c-7.15-25.9-17.72-49.28-30.91-69-26.4-39.4-63.31-64.08-104.48-64.71C2603.37,1350.85,2535.15,1446.31,2533.35,1565.31Z"></path><path fill="#fcfdfd" d="M2539.1,1565.4c-.86,57.21,14.4,109.24,39.77,147.13a172.9,172.9,0,0,0,20.83,25.61v-3.51H2760v5.94a172.22,172.22,0,0,0,21.6-25c13.25-18.55,24.09-40.71,31.72-65.38q2.85-9.26,5.1-19h-4.19V1488.93h1.53c-6.88-24.89-17-47.37-29.73-66.32-25.37-37.88-60.86-61.61-100.44-62.21C2606.42,1359.21,2540.83,1451,2539.1,1565.4Z"></path><path fill="#fbfcfc" d="M2544.85,1565.49c-.83,54.91,13.82,104.86,38.18,141.22a164.63,164.63,0,0,0,20,24.59,139.48,139.48,0,0,0,11.2,10.14v-6.81h137v4.09c1.92-1.63,3.8-3.33,5.66-5.09a165,165,0,0,0,20.73-24c25.45-35.61,41.6-85.09,42.43-140,1.66-109.82-58.59-199.79-134.59-200.94S2546.51,1455.66,2544.85,1565.49Z"></path><path fill="#fafbfc" d="M2550.6,1565.58c-.8,52.61,13.24,100.48,36.58,135.32a158.09,158.09,0,0,0,19.16,23.56,134.94,134.94,0,0,0,10.73,9.71c1.84,1.5,3.72,2.93,5.62,4.3v-3.84h120.07v1.44a130,130,0,0,0,11-9.38,158.61,158.61,0,0,0,19.87-23c24.38-34.12,39.86-81.54,40.65-134.15,1.6-105.24-56.15-191.45-129-192.55S2552.19,1460.34,2550.6,1565.58Z"></path><path fill="#f9fbfb" d="M2556.35,1565.66c-.76,50.33,12.66,96.1,35,129.43,11.16,16.66,24.55,30.21,39.5,39.66v-.12H2729v1.6c15.22-9,29-22.13,40.67-38.44,23.32-32.64,38.12-78,38.88-128.31,1.53-100.65-53.7-183.1-123.34-184.15S2557.87,1465,2556.35,1565.66Z"></path><path fill="#f8fafa" d="M2562.1,1565.75c-1.46,96.06,51.25,174.75,117.72,175.76,33.23.5,63.62-18.51,85.87-49.66s36.39-74.43,37.12-122.46c1.45-96.06-51.26-174.75-117.73-175.75S2563.55,1469.69,2562.1,1565.75Z"></path><ellipse cx="2682.45" cy="1567.57" fill="#f7f9f9" rx="165.65" ry="114.62" transform="rotate(-89.13 2682.57 1567.54)"></ellipse><ellipse cx="2682.45" cy="1567.57" fill="#f6f8f9" rx="157.34" ry="108.87" transform="rotate(-89.13 2682.57 1567.54)"></ellipse><ellipse cx="2682.45" cy="1567.57" fill="#f5f8f8" rx="149.03" ry="103.12" transform="rotate(-89.13 2682.56 1567.54)"></ellipse><ellipse cx="2682.45" cy="1567.57" fill="#f4f7f7" rx="140.72" ry="97.37" transform="rotate(-89.13 2682.57 1567.54)"></ellipse><ellipse cx="2682.45" cy="1567.57" fill="#f3f6f7" rx="132.41" ry="91.62" transform="rotate(-89.13 2682.57 1567.54)"></ellipse><ellipse cx="2682.45" cy="1567.57" fill="#f2f6f6" rx="124.1" ry="85.87" transform="rotate(-89.13 2682.566 1567.545)"></ellipse><ellipse cx="2682.45" cy="1567.57" fill="#f0f5f5" rx="115.79" ry="80.12" transform="rotate(-89.13 2682.57 1567.54)"></ellipse><ellipse cx="2682.45" cy="1567.57" fill="#eff4f5" rx="107.48" ry="74.37" transform="rotate(-89.13 2682.566 1567.545)"></ellipse><ellipse cx="2682.45" cy="1567.57" fill="#eef3f4" rx="99.17" ry="68.62" transform="rotate(-89.13 2682.57 1567.54)"></ellipse><ellipse cx="2682.45" cy="1567.57" fill="#edf3f3" rx="90.86" ry="62.87" transform="rotate(-89.13 2682.57 1567.54)"></ellipse><ellipse cx="2682.45" cy="1567.57" fill="#ecf2f3" rx="82.56" ry="57.12" transform="rotate(-89.13 2682.566 1567.545)"></ellipse><ellipse cx="2682.45" cy="1567.57" fill="#ebf1f2" rx="74.25" ry="51.37" transform="rotate(-89.13 2682.57 1567.54)"></ellipse><ellipse cx="2682.45" cy="1567.57" fill="#eaf0f1" rx="65.94" ry="45.63" transform="rotate(-89.13 2682.57 1567.54)"></ellipse><ellipse cx="2682.45" cy="1567.57" fill="#e9f0f0" rx="57.63" ry="39.88" transform="rotate(-89.13 2682.566 1567.545)"></ellipse><ellipse cx="2682.45" cy="1567.57" fill="#e8eff0" rx="49.32" ry="34.13" transform="rotate(-89.13 2682.57 1567.54)"></ellipse><ellipse cx="2682.45" cy="1567.57" fill="#e7eeef" rx="41.01" ry="28.38" transform="rotate(-89.13 2682.57 1567.54)"></ellipse><path fill="#e6edee" d="M2659.83,1567.23c-.28,18.06,9.63,32.85,22.13,33s22.84-14.3,23.12-32.36-9.64-32.85-22.13-33S2660.1,1549.17,2659.83,1567.23Z"></path><path fill="#e5edee" d="M2665.58,1567.32c-.21,13.47,7.18,24.5,16.5,24.64s17-10.66,17.25-24.13-7.19-24.51-16.51-24.65S2665.78,1553.85,2665.58,1567.32Z"></path><path fill="#e4eced" d="M2671.32,1567.4c-.13,8.88,4.74,16.16,10.89,16.25s11.23-7,11.37-15.91-4.74-16.16-10.88-16.25S2671.46,1558.52,2671.32,1567.4Z"></path></g><polygon fill="url(#e)" points="2265.55 1742.84 2267.78 1763.8 2455.27 1774.79 2682.6 1740.83 2676.24 1709.41 2407.39 1721.79 2265.55 1742.84"></polygon><path fill="url(#d)" d="M2491.14,1668c-63.6-1.61-69.68,20.75-79.85,42.79-2.16,4.69.26,13.9,6.29,4-3.5,17.13,8.18,21,19.94,15.36,7.33-3.5,65.12-15.7,69.39-32.78S2499.47,1668.25,2491.14,1668Z"></path><path fill="url(#v)" d="M2530.87,1682.32c-51.6.09-65.78,18-77.76,39.06-2.56,4.49-.92,13.87,5.93,4.48-4.94,16.78,7.93,24.53,18.57,17,30.21-21.4,66.21-10.15,71.91-26.8S2546.7,1682.29,2530.87,1682.32Z"></path><polygon fill="url(#w)" points="2474.08 1751.61 2411.28 1504.96 2173.15 1496.31 2168.23 1504.96 2267.2 1749.7 2455.32 1760.88 2474.08 1751.61"></polygon><path fill="url(#f)" d="M2584.13,1165.57c13.38-5.43,23.7,9.55,20.55,19.42s5.12,36.37-2.92,37.85-21.72-34.83-21-43.53S2584.13,1165.57,2584.13,1165.57Z"></path><path fill="url(#x)" d="M2456.82,1907.74c40.23,122.52-89.71,299.62-105.77,482.71-15.74-2.85-35.35-2.59-38.77-17,5.2-32.63,27.22-181,27-229-.52-139.31-1.67-206.62-4.7-242-2.76-32.08,4-78.16,28.81-88.64S2449.05,1884.09,2456.82,1907.74Z"></path><path fill="#eb8c2c" d="M2628.66 839.73c55-48.16 131.14-39.18 135.9-9.18 4.16 26.28-59.1 52.53-117.13 43C2630.07 870.64 2628.66 839.73 2628.66 839.73zM2762.47 879.68c50.93-1.76 88.07 36.6 77.42 54.89-9.32 16-55 2.34-82.16-28.38C2749.62 897 2762.47 879.68 2762.47 879.68zM2793.3 935.54c39.08 32.7 41.09 86.06 20.95 92.56-17.64 5.7-42.52-35-42.18-76C2772.17 939.84 2793.3 935.54 2793.3 935.54z"></path><path fill="url(#y)" d="M2566.87,933.89c-25.16-124.51,92.71-158.45,101.48-134.57,5.61,15.27-30.61,34.25-38.28,48.36,30.38-26.68,58-21.45,34.11,0,44.88-28,83.2-12.65,61.78,16,24.57-22.13,83.29-11.39,94.3,11.29,9,18.6-26.32,25.69-39.51,27.8,25.91.86,68.87,28.83,69.35,53.79.26,13.15-14.1,23.63-36.21,17.46,10.49,59.88-130.24,156.12-149.27,184C2657.31,1168.83,2566.87,933.89,2566.87,933.89Z"></path><path fill="#f7b98f" d="M2638.79,1038.22c-2.91-.66-12.18-6.78-16.13-10.76-10.07-9.28,41.71-25.86,37.17-59.53-1.91-14.15-67.15-75.75-80.17-70.36-24.07,10-70.46,53.07-61,64.9,4.46,5.57-31.33,167.45-8.45,187.2,10.07,8.69,42.38,4,73-9.59-2.48,13.11,3.52,53.88,18.29,69.86,22.23,24,66.7,21.67,79.58-3.11,10-19.27-34.92-102.3-43.35-119.8,21.11,3.2,34.2-7.94,41.57-20,5.62-9.17,7.92-18.84,7.93-23C2687.28,1029.13,2672.62,1006.52,2638.79,1038.22Z"></path><g clip-path="url(#z)"><rect width="71.53" height="113.1" x="2477.43" y="962.47" fill="#ffd3b0"></rect><path fill="#ffd3b0" d="M2484.45,1024.92q-6.12,14.74-11.84,29.22h3.72v22.52h73.73V961.37h-34.63v-7q-3.12,6.7-6.23,13.56C2500.89,986.19,2492.6,1005.25,2484.45,1024.92Z"></path><path fill="#ffd2af" d="M2485.26,1025.26q-6,14.49-11.63,28.71h2.7v22.69h73.73V961.37H2515.7v-5.46q-3.06,6.58-6.12,13.33C2501.42,987.2,2493.27,1005.94,2485.26,1025.26Z"></path><path fill="#ffd1ae" d="M2486.08,1025.59q-5.91,14.23-11.43,28.2h1.68v22.87h73.73V961.37H2516v-3.89q-3,6.48-6,13.09C2501.94,988.22,2493.94,1006.62,2486.08,1025.59Z"></path><path fill="#fed1ad" d="M2486.89,1025.93q-5.79,14-11.22,27.69h.66v23h73.73V961.37h-33.81v-2.31q-3,6.35-5.91,12.85C2502.47,989.24,2494.62,1007.3,2486.89,1025.93Z"></path><path fill="#fed0ac" d="M2487.7,1026.27q-5.68,13.71-11,27.18-2.67,6.72-5.23,13.37h4.86v9.84h73.73V961.37h-33.54v-.74q-2.89,6.24-5.8,12.61C2503,990.25,2495.29,1008,2487.7,1026.27Z"></path><path fill="#fecfab" d="M2488.52,1026.61q-5.58,13.46-10.8,26.66-2.61,6.6-5.13,13.12h3.74v10.27h73.73V961.37h-30.42v-5.25q-1.42,3-2.85,6.08-2.84,6.12-5.68,12.38C2503.52,991.27,2496,1008.66,2488.52,1026.61Z"></path><path fill="#feceaa" d="M2489.33,1026.94c-7.29,17.6-14.13,34.91-20.46,51.74l7.46-2h73.73V961.37h-30.2v-3.56q-1.4,3-2.79,6c-1.86,4-3.72,8.05-5.58,12.15C2504.05,992.28,2496.63,1009.34,2489.33,1026.94Z"></path><path fill="#fdcda9" d="M2490.15,1027.28c-7.16,17.26-13.86,34.22-20.06,50.72l6.24-1.34h73.73V961.37h-27.25v-7.66q-5.47,11.5-10.94,23.54C2504.58,993.3,2497.3,1010,2490.15,1027.28Z"></path><path fill="#fdcda8" d="M2491,1027.62c-7,16.91-13.58,33.54-19.66,49.71l5-.67h73.73V961.37H2523v-5.85q-5.35,11.26-10.72,23.07C2505.1,994.31,2498,1010.71,2491,1027.62Z"></path><path fill="#fdcca7" d="M2491.78,1028c-6.87,16.57-13.31,32.86-19.26,48.69h77.54V961.37h-26.92v-4q-5.25,11-10.51,22.6C2505.63,995.33,2498.65,1011.39,2491.78,1028Z"></path><path fill="#fdcba6" d="M2492.59,1028.3c-6.73,16.22-13,32.17-18.86,47.68h2.6v.68h73.73V961.37H2523.3v-2.24q-5.15,10.8-10.29,22.13C2506.16,996.34,2499.32,1012.07,2492.59,1028.3Z"></path><path fill="#fccaa5" d="M2493.41,1028.63c-6.59,15.88-12.75,31.5-18.46,46.68h1.38v1.35h73.73V961.37h-26.6v-.44q-5,10.58-10.07,21.66C2506.68,997.36,2500,1012.75,2493.41,1028.63Z"></path><path fill="#fcc9a4" d="M2494.22,1029c-6.44,15.54-12.47,30.81-18.06,45.66h.17v2h73.73V961.37h-24V957.6l-2.45,5.14q-4.93,10.35-9.85,21.19C2507.21,998.37,2500.66,1013.44,2494.22,1029Z"></path><path fill="#fcc8a3" d="M2495,1029.31c-6.3,15.19-12.2,30.13-17.66,44.65-.69,1.82-1.36,3.63-2,5.43l1-2.73h73.73V961.37h-21.47v-6.82q-2.4,4.94-4.8,10-4.82,10.13-9.63,20.72C2507.74,999.39,2501.34,1014.12,2495,1029.31Z"></path><path fill="#fcc8a2" d="M2495.85,1029.65c-6.16,14.84-11.92,29.44-17.26,43.64q-2,5.32-3.92,10.57l1.66-7.2h73.73V961.37h-21.41v-4.79q-2.34,4.83-4.7,9.77-4.69,9.89-9.41,20.25C2508.26,1000.41,2502,1014.8,2495.85,1029.65Z"></path><path fill="#fbc7a1" d="M2496.66,1030c-6,14.51-11.64,28.77-16.86,42.63q-2,5.21-3.83,10.33l.36-6.28h73.73V961.37H2528.7v-2.76q-2.28,4.71-4.58,9.54-4.6,9.66-9.2,19.78C2508.79,1001.42,2502.68,1015.48,2496.66,1030Z"></path><path fill="#fbc6a0" d="M2497.48,1030.32c-5.87,14.16-11.37,28.08-16.46,41.62q-1.91,5.07-3.74,10.08v-5.36h72.78V961.37h-21.3v-.73q-2.24,4.61-4.48,9.32-4.49,9.42-9,19.31C2509.32,1002.44,2503.35,1016.16,2497.48,1030.32Z"></path><path fill="#fbc59e" d="M2498.29,1030.66c-5.73,13.82-11.09,27.4-16.06,40.61q-1.86,4.95-3.65,9.83v-4.44h71.48V961.37h-16.89v-7.54C2521.58,977.09,2509.75,1003,2498.29,1030.66Z"></path><path fill="#fbc49d" d="M2499.11,1031c-5.59,13.47-10.82,26.71-15.66,39.59q-1.82,4.83-3.56,9.59v-3.52h70.17V961.37h-16.95v-5.29C2521.82,978.76,2510.28,1004.06,2499.11,1031Z"></path><path fill="#fac49c" d="M2499.92,1031.34c-5.44,13.12-10.54,26-15.26,38.58q-1.77,4.71-3.47,9.34v-2.6h68.87V961.37h-17v-3C2522.05,980.43,2510.81,1005.08,2499.92,1031.34Z"></path><path fill="#fac39b" d="M2500.74,1031.67c-5.3,12.79-10.27,25.35-14.86,37.58q-1.73,4.57-3.38,9.09v-1.68h67.56V961.37H2533v-.79C2522.29,982.1,2511.34,1006.11,2500.74,1031.67Z"></path><path fill="#fac29a" d="M2501.55,1032c-5.16,12.44-10,24.67-14.46,36.56q-1.68,4.47-3.28,8.86v-.77h64.92v7.07q2-4.43,3.93-8.94h-2.6V961.37h-13.21V955.1q-1.95,3.81-3.9,7.74C2522.52,983.77,2511.87,1007.13,2501.55,1032Z"></path><path fill="#fac199" d="M2502.37,1032.35c-5,12.09-9.72,24-14.06,35.55q-1.64,4.33-3.2,8.61c-.52,1.42-1,2.84-1.55,4.25v-4.1h64.68v6q1.92-4.31,3.82-8.69h-2V961.37h-13.37v-3.81c-1.26,2.47-2.53,5-3.79,7.53C2522.76,985.45,2512.4,1008.16,2502.37,1032.35Z"></path><path fill="#f9c098" d="M2503.18,1032.69c-4.87,11.75-9.43,23.3-13.66,34.54q-3.17,8.41-6.08,16.59v-7.16h64.31v4.89q1.86-4.18,3.71-8.45h-1.4V961.37h-13.53V960q-1.84,3.6-3.69,7.31C2523,987.12,2512.93,1009.19,2503.18,1032.69Z"></path><path fill="#f9c097" d="M2504,1033c-4.73,11.41-9.16,22.63-13.26,33.53q-3.07,8.17-5.91,16.11v-6h62.43v3.8q1.8-4.07,3.6-8.2h-.8V961.37h-10.14v-5.75q-3.54,6.76-7.13,14C2523.22,988.79,2513.46,1010.21,2504,1033Z"></path><path fill="#f9bf96" d="M2504.81,1033.36c-4.59,11.07-8.88,21.94-12.86,32.52q-3,7.93-5.72,15.62v-4.84h60.54v2.7c1.16-2.62,2.33-5.27,3.49-7.95h-.2v-110h-10.41v-3.08c-2.29,4.37-4.6,8.9-6.92,13.55C2523.46,990.46,2514,1011.24,2504.81,1033.36Z"></path><path fill="#f9be95" d="M2505.62,1033.7c-4.44,10.72-8.6,21.26-12.46,31.5q-2.88,7.69-5.54,15.14v-3.68h58.66v1.61q1.69-3.81,3.38-7.7,3.38-7.78,6.72-15.82h-6.32V961.37h-10.68V961q-3.33,6.36-6.7,13.13C2523.69,992.13,2514.51,1012.26,2505.62,1033.7Z"></path><path fill="#f8bd94" d="M2506.44,1034c-4.3,10.37-8.33,20.57-12.06,30.49q-2.8,7.44-5.37,14.65v-2.52h56.78v.52q1.64-3.69,3.27-7.46,3.27-7.53,6.5-15.31h-5.5v-93h-7.75v-3.78c-1.06,2-2.13,4-3.2,6q-3.22,6.15-6.48,12.7C2523.93,993.81,2515,1013.29,2506.44,1034Z"></path><path fill="#f8bc93" d="M2507.25,1034.38c-4.16,10-8.05,19.89-11.66,29.48q-2.7,7.19-5.19,14.16v-1.36h51.72v6.49c4.24-9.32,8.47-19.05,12.63-29.08h-4.69v-92.7H2545v-6.55c-4.06,7.38-8.22,15.33-12.43,23.77C2524.16,995.48,2515.57,1014.31,2507.25,1034.38Z"></path><path fill="#f8bb92" d="M2508.07,1034.71c-4,9.69-7.78,19.21-11.26,28.47q-2.61,6.94-5,13.69v-.21h49.94v5.16c4.09-9,8.18-18.4,12.19-28.09h-3.87V961.37h-5.54v-3.48c-3.92,7.12-7.94,14.8-12,23C2524.4,997.15,2516.1,1015.34,2508.07,1034.71Z"></path><path fill="#f8bb91" d="M2508.88,1035.05c-3.87,9.34-7.5,18.53-10.86,27.46q-2.52,6.71-4.83,13.2-1.16,3.24-2.26,6.43v-5.48h50.43v3.82q5.92-13,11.76-27.09h-3.06v-92h-6V961c-3.78,6.87-7.66,14.27-11.58,22.14C2524.63,998.82,2516.63,1016.37,2508.88,1035.05Z"></path><path fill="#f7ba90" d="M2509.7,1035.39c-3.73,9-7.23,17.84-10.46,26.45q-2.43,6.45-4.66,12.71c-.74,2.08-1.47,4.15-2.17,6.19v-4.08H2541v2.49c3.8-8.37,7.59-17.09,11.32-26.09h-2.24V961.37h-1.12V954.5q-2.64,4.54-5.38,9.52c-3.64,6.62-7.38,13.75-11.15,21.33C2524.87,1000.5,2517.16,1017.39,2509.7,1035.39Z"></path><path fill="#f7b98f" d="M2510.51,1035.73c-3.59,8.65-7,17.16-10.06,25.43q-2.32,6.21-4.48,12.23c-.71,2-1.41,4-2.09,5.95v-2.68h46.72v1.15c3.65-8,7.3-16.44,10.89-25.09h-1.43V961.37h-1.8v-3.44q-2.55,4.38-5.18,9.16c-3.51,6.36-7.09,13.23-10.72,20.51C2525.1,1002.17,2517.69,1018.42,2510.51,1035.73Z"></path></g><g clip-path="url(#A)"><rect width="53.98" height="88.78" x="2580.76" y="1094.48" fill="#f7b98f"></rect><path fill="#f7b98f" d="M2579.66,1113.66v64.93h-2.86a38.19,38.19,0,0,0,15.31-3.63c10.17-4.63,19.87-13.5,26.69-25.51,13.63-24,10.57-51.5-6.84-61.38v5.31h-32.3Z"></path><path fill="#f6b88e" d="M2579.66,1115.15v59.52h-2a34.88,34.88,0,0,0,14-3.33c9.32-4.24,18.21-12.37,24.46-23.38,12.5-22,9.69-47.21-6.27-56.27v1.69h-27.06v-1.61a45.21,45.21,0,0,0-6.88,3.9h3.7Z"></path><path fill="#f5b78d" d="M2579.66,1116.64v54.11h-1.11a31.8,31.8,0,0,0,12.75-3c8.48-3.86,16.56-11.26,22.24-21.26,11.36-20,8.81-42.92-5.7-51.16-7.25-4.11-16.12-3.78-24.6.08a41.65,41.65,0,0,0-6.25,3.54h2.67Z"></path><path fill="#f4b68c" d="M2579.66,1118.14v48.69h-.24a28.53,28.53,0,0,0,11.48-2.72c7.63-3.48,14.9-10.13,20-19.13,10.22-18,7.92-38.63-5.13-46-6.53-3.71-14.52-3.41-22.15.06a40.77,40.77,0,0,0-10.95,7.49h7Z"></path><path fill="#f3b58b" d="M2579.66,1119.63v42.73h-4.27a19.49,19.49,0,0,0,4.9.55,25.39,25.39,0,0,0,10.21-2.42c6.78-3.09,13.25-9,17.79-17,9.09-16,7.05-34.33-4.56-40.92-5.8-3.29-12.9-3-19.68.06a36,36,0,0,0-9.74,6.66h5.35Z"></path><path fill="#f2b48a" d="M2579.66,1121.12v35.8h-6.79c10.16,5.77,24.84-.92,32.79-14.93s6.17-30-4-35.8c-5.08-2.89-11.29-2.65-17.22,0a31.75,31.75,0,0,0-8.52,5.82h3.73Z"></path><path fill="#f0b289" d="M2579.66,1122.61v30.69h-4.73c8.71,4.94,21.29-.79,28.11-12.8s5.28-25.75-3.43-30.69c-4.35-2.47-9.67-2.27-14.76,0a27.24,27.24,0,0,0-7.3,5h2.11Z"></path><path fill="#efb188" d="M2579.66,1124.1v25.58H2577c7.25,4.11,17.74-.66,23.42-10.67s4.4-21.46-2.85-25.57-17.74.65-23.42,10.66Z"></path><path fill="#eeb087" d="M2579.66,1125.59v20.46h-.61c5.8,3.3,14.19-.52,18.73-8.53s3.52-17.17-2.28-20.46-14.19.53-18.74,8.53Z"></path><ellipse cx="2587.27" cy="1131.56" fill="#edaf86" rx="12.5" ry="9.06" transform="rotate(-60.42 2587.356 1131.545)"></ellipse><path fill="#ecae85" d="M2582,1128.57c-2.27,4-1.76,8.59,1.14,10.23s7.1-.26,9.37-4.26,1.76-8.59-1.14-10.23S2584.29,1124.57,2582,1128.57Z"></path><path fill="#ebad84" d="M2584.65,1130.06c-1.14,2-.88,4.3.57,5.12s3.54-.13,4.68-2.13.88-4.29-.57-5.12S2585.78,1128.06,2584.65,1130.06Z"></path></g><path fill="url(#B)" d="M2525.59,964.11c-2.07,16,2.84,28.31,8.09,33.55s35.19,17.69,37.76,16.53,6.22-19.84-3.11-24.56S2525.59,964.11,2525.59,964.11Z"></path><path fill="url(#C)" d="M2537.39,937.7c-4.42,1.84-8.74,8.18-10.28,23.32,1.68-5.58,7.06-21.66,12.19-22,10.13,7.67,25.86,31.39,37.8,44.31-1.55,1.12-4.6,5.63-5.22,10.36,1.21-4.36,4.28-8.68,6.09-9.43a14.68,14.68,0,0,0-3.86,7.29c.68-1.9,4-6.1,4.95-6.15,3,3,5.69,5.22,7.92,6.1,3.66,1.45,3.93,13.14.25,12.45-25.31-4.81-58.47-33.66-61-37.23C2521.84,960.53,2530.68,933.79,2537.39,937.7Z"></path><path fill="#fffef0" d="M2542,991l38.46,22.95-5.18,9.5s-30.68,4.95-46.62-3C2521.37,1016.85,2542,991,2542,991Z"></path><path fill="url(#j)" d="M2530.05,996.46c-3.71,5.66-4.52,15-1.44,24,4.66,2.83,13.72,4.91,20.44,2.87a26.57,26.57,0,0,0,3.25-16.44C2550.42,989.92,2538,984.35,2530.05,996.46Z"></path><path fill="#fff" d="M2544.75 1005.53l1.63-.2a13.46 13.46 0 00-.81-3.41l-1.52.63A11.79 11.79 0 012544.75 1005.53zM2544.2 1015.39c.15-.67.28-1.38.38-2.09l1.63.24c-.11.75-.25 1.49-.4 2.2zm.62-4.21c.07-.88.1-1.75.1-2.61 0-.31 0-.63 0-.94l1.64 0c0 .33 0 .66 0 1 0 .9 0 1.82-.11 2.74zM2542.93 1022.46a10 10 0 001.8-3.08l-1.53-.61a8.62 8.62 0 01-1.48 2.57z"></path><path fill="#592007" d="M2523.11,994c14.25,9,39.74,18.49,56.72,21.75l1.17-3.59c-15.45-5.7-32.19-19.49-46.24-27.65Z"></path><path fill="url(#D)" d="M2506.29,1068.07c-.23.66-1,3.63-1.21,4.43-6.11-2.83-25.39-12.38-24.81-16S2502.1,1062,2506.29,1068.07Z"></path><path fill="#fffef0" d="M2547.48,1073.45s-16.15,17.78-32.64,17.56c2.72,7.16,9.82,12.86,12.95,11.52S2543.89,1082.59,2547.48,1073.45Z"></path><path fill="url(#E)" d="M2658.15,1036.42c14.82-2.22,14.09,11.81,9.49,18-8.14,10.94-28.34,17.78-30.16,14.26s6.19-5.28,4.6-9.81-14.65,2.32-10.82-6.2S2651.26,1037.45,2658.15,1036.42Z"></path><path fill="url(#F)" d="M2150.8,2372.21c-31.88-4.51-99.41,4.07-99.41-1.95,0-6.42,69.11-13.47,75.69-30.77C2137,2341.72,2168.5,2374.71,2150.8,2372.21Z"></path><path fill="url(#G)" d="M2351,2390.61c-31.88-4.52-99.41,4.07-99.41-2,0-6.42,64.62-21.33,79.43-32.66C2340.91,2358.21,2368.72,2393.11,2351,2390.61Z"></path><path fill="url(#H)" d="M2598.18,1199.61c-5.32-1.72-2.46,13.16.56,22.29C2606.56,1228.12,2628.22,1209.34,2598.18,1199.61Z"></path><path fill="url(#I)" d="M2668.91,1152.24c-7.77,23.77-38.84,53.9-70.73,47.37,11.33,15.91,18.75,42.36,16.41,45.76,14.55,2.42,81.3-33.2,92.14-63.9C2691.82,1167.88,2679.75,1164.16,2668.91,1152.24Z"></path><path fill="url(#J)" d="M2584.13,1165.57c-7.39,12.6-20.75,47.89-13.48,56.33,2.87-10.74,8.12-20,12.95-27.26C2582.54,1181.26,2584.13,1165.57,2584.13,1165.57Z"></path><polygon fill="url(#K)" points="2322.81 1627.49 2316.88 1616.43 2313.97 1616.43 2313.97 1620.5 2310.77 1621.32 2307.2 1616.43 2307.2 1621.96 2302.11 1621.96 2299.74 1618.8 2299.74 1623.88 2297.71 1625.24 2297.71 1629.08 2302.11 1629.08 2301.43 1625.58 2304.48 1627.49 2309.4 1627.49 2309.4 1624.22 2312.28 1629.08 2316.88 1629.08 2316.88 1624.56 2322.81 1627.49"></polygon><rect width="206.52" height="2.19" x="2471.9" y="1729.41" fill="#a1aba9" transform="rotate(-11.79 2575.582 1730.755)"></rect><path fill="#a1aba9" d="M2464.85 1752.71a.9.9 0 00.28 0 1.1 1.1 0 00.79-1.33l-62.72-243.08-230-6a1.13 1.13 0 00-1.12 1.06 1.1 1.1 0 001.07 1.13l228.35 6 62.3 241.47A1.1 1.1 0 002464.85 1752.71zM2455.32 1762a1.1 1.1 0 00.07-2.19l-179.91-10.7a1.08 1.08 0 00-1.16 1 1.1 1.1 0 001 1.16l179.91 10.7z"></path><path fill="#c9c7da" d="M2670.56,1565.63a1,1,0,0,0,.49-.11,1.09,1.09,0,0,0,.49-1.47c-18.95-38-89.84-237-77.38-332.07a1.09,1.09,0,0,0-.94-1.23,1.08,1.08,0,0,0-1.23.94c-12.52,95.58,58.58,295.25,77.59,333.34A1.1,1.1,0,0,0,2670.56,1565.63Z"></path><ellipse cx="2604.13" cy="1258.31" fill="#c9c7da" rx="3.12" ry="9.82"></ellipse><path fill="#c9c7da" d="M2610.74 1327.92c1 5.34.36 9.92-1.33 10.22s-3.85-3.77-4.82-9.11-.37-9.92 1.33-10.22S2609.77 1322.58 2610.74 1327.92zM2624.64 1387.41c1 5.34.37 9.92-1.33 10.22s-3.85-3.77-4.82-9.11-.36-9.92 1.33-10.22S2623.67 1382.07 2624.64 1387.41zM2639.77 1445.33c1 5.34.37 9.91-1.33 10.22s-3.85-3.77-4.81-9.11-.37-9.92 1.32-10.23S2638.81 1440 2639.77 1445.33zM2658.49 1501.42c1.65 5.17 1.66 9.79 0 10.31s-4.31-3.24-6-8.41-1.66-9.78 0-10.3S2656.84 1496.26 2658.49 1501.42zM2683.12 1558.82c1.93 5.07 2.19 9.68.58 10.29s-4.49-3-6.42-8.06-2.19-9.68-.58-10.3S2681.18 1553.75 2683.12 1558.82z"></path><polygon fill="url(#L)" points="1272.69 1773.14 1117.47 2374.23 1125.82 2373.5 1322.29 1759.28 1272.69 1773.14"></polygon><polygon fill="url(#M)" points="1480.58 1773.14 1635.8 2374.23 1627.44 2373.5 1430.98 1759.28 1480.58 1773.14"></polygon><polygon fill="url(#N)" points="1380.07 1757.67 1307.63 2374.23 1315.81 2372.37 1427.34 1737.21 1380.07 1757.67"></polygon><path fill="url(#O)" d="M1401.76,1140.47c125.44-30,66.6,228.91,124.11,403.1,56.72,171.85,304.55,169.78,182.28,320-42.77,52.55-346.85,55.7-488.78-17.86S1247.67,1177.31,1401.76,1140.47Z"></path><path fill="url(#P)" d="M1334.49,1381.29c30.76,63.94-59.9,205.48-77.34,231.94-63.47,96.27-51.16,190.87,42.17,226.85,42.53,16.4,55,22.57,86.27,31.43,33.41,9.44,59.84,58.09,65.74,28.43s25.23-208.86-15.14-314.21S1385.2,1355.08,1334.49,1381.29Z"></path><path fill="url(#g)" d="M1505.58,1464.24c-7.95,34.85,37.2,187.3,54.59,156.29s5.09-87,2.93-103.67c-3.24-25.06-21.26-66.45-27.12-73.31S1512.8,1432.64,1505.58,1464.24Z"></path><path fill="#c95e49" d="M1411.55,2363.52c-8.59,8.38-21.08,14.53-11.08,19.16,10.4,4.81,25,10.65,39.68,16.37,9.24,3.6,28.64,1.48,30.21-2.07s-22.06-4-25.64-7.07c-11.06-9.55-20-17.16-24.28-22.65A9.5,9.5,0,0,0,1411.55,2363.52Z"></path><path fill="#e8836b" d="M1306,1812.61c29.89,38.9,105.13,67.36,153.6,59.8,12.74-2,155.16,10.76,186.42-19.25,36.55-35.09,31.11-90.64-8.15-132.24-55.84-59.16-144.2-109.69-179.06-222.14-19.45-14.19-84.34-46.52-84.34-46.52s-86.37,158-100.27,215.9C1264.76,1707.25,1281.46,1780.73,1306,1812.61Z"></path><polygon fill="url(#Q)" points="1312.26 807.84 1256.54 1194.01 1276.33 1201.02 1286.44 1089.02 1287.11 1199.74 1325.01 1209.29 1316.15 1021.86 1338.14 1206.98 1401.09 1200.25 1335.87 805.04 1312.26 807.84"></polygon><polygon fill="url(#R)" points="1450.39 1496.98 1524.13 1129.26 1409.09 1059.26 1323.03 1124.38 1381.66 1482.25 1450.39 1496.98"></polygon><g clip-path="url(#S)"><path fill="url(#T)" d="M668.33,1434.47c13,516.91,1388.38,577.75,1415.13-37.9C2123.52,474.53,648,628.23,668.33,1434.47Z"></path><path fill="#ceae91" d="M1539.19,1113.72s-1.34.07-3.8.07c-1.19.11-2.45.38-3.88.57-1.56.42-3.23.65-5.11,1.32a86.62,86.62,0,0,0-12.93,5.43c-4.93,2.47-10.48,5.57-16.7,9.05-3.11,1.75-6.41,3.53-9.87,5.39a118.46,118.46,0,0,1-11.06,5.34c-7.83,3.35-16.9,5.64-26.28,7.86a223.21,223.21,0,0,0-28.11,8.28c-9.36,3.3-18.78,7.15-28.75,10.64s-20.61,5.94-31.43,5.88a69.68,69.68,0,0,1-7.65-.18l-4.11-.29c-1.4-.09-2.75-.21-4-.38-2.55-.34-5.13-.61-7.64-1s-5-.87-7.4-1.38a149.51,149.51,0,0,1-26.62-8.37c-8-3.36-15.24-6.89-21.85-10.22s-12.47-6.5-17.73-9.21c-2.63-1.42-5.09-2.72-7.39-3.88s-4.41-2.35-6.34-3.29-3.67-1.9-5.18-2.71-2.84-1.37-3.91-1.93c-2.13-1.1-3.28-1.75-3.28-1.75l.36-2.61s1.28-.24,3.73-.58c1.22-.18,2.73-.32,4.52-.52s3.81-.2,6.12-.26,4.83,0,7.58.16l4.3.27,4.55.51a194.26,194.26,0,0,1,20.66,3.71c7.36,1.73,15.2,3.86,23.18,6.25s16.11,5.12,24.34,7.9c2.06.61,4.13,1.32,6.22,2l6.31,1.79c1.08.33,2.1.57,3.09.79l3,.7c1.89.54,4.42.84,6.83,1.24a224,224,0,0,0,27.43,3.15,78.89,78.89,0,0,0,28.43-3.94c9.13-2.89,17.38-7.8,24.8-13.44s14.37-11.45,21.7-15.8a104,104,0,0,1,11.07-5.82c3.71-1.7,7.39-3.27,11-4.63a101.43,101.43,0,0,1,21-5.62,51.32,51.32,0,0,1,17.77.28,35.05,35.05,0,0,1,6.42,2,33.25,33.25,0,0,1,4.47,2.39c1.92,1.53,2.92,2.42,2.92,2.42Z"></path><path fill="#ceae91" d="M1558.39,1155.38s-1.43.4-4.12,1c-1.27.43-2.66.88-4.32,1.48-.85.36-1.74.72-2.68,1.08s-1.91.91-2.93,1.35a108.33,108.33,0,0,0-13.9,8.4c-5.22,3.64-11,8.08-17.81,13l-5.32,3.73c-.9.65-1.89,1.25-2.86,1.88l-1.46,1-1.8,1.07c-1.93,1.18-4,2.28-6,3.41a54.7,54.7,0,0,1-6.67,3.14,85.93,85.93,0,0,1-15.24,4.88c-2.61.61-5.28,1.11-7.94,1.66l-8.16,1.15c-5.41.9-11,1.26-16.43,2.2-1.36.27-2.75.38-4.13.56l-4.12.62c-2.75.45-5.48,1-8.26,1.46-5.53.9-11.07,2.08-16.69,3.09-5.6,1.2-11.27,2.3-17,3.44s-11.5,2-17.3,2.69a138.43,138.43,0,0,1-17.35.78,283.79,283.79,0,0,1-33.69-2.58c-5.4-.91-10.73-1.81-15.86-3.08l-7.56-2c-1.26-.38-2.42-.69-3.74-1.12l-3.46-1.12c-9.51-3.27-17.9-6.73-25.6-10l-20.71-9.09c-6.14-2.69-11.53-4.91-16-6.79s-8.16-3.2-10.67-4.11-3.88-1.48-3.88-1.48l.14-2.63s1.42-.34,4.15-.88a90.28,90.28,0,0,1,11.93-1.34,127.61,127.61,0,0,1,18.58.4,227.37,227.37,0,0,1,23.42,3.48c8.37,1.62,17.3,3.79,26.29,5.9l3.53.88c1,.26,2.26.5,3.38.76l7,1.73c4.68,1.22,9.51,2.28,14.37,3.61,9.78,2.28,20,4.76,30.46,6.29,10.48,1.74,21.21,3.79,32.18,5.37l8.25.88c2.76.33,5.5.25,8.26.32a98.72,98.72,0,0,0,16.34-1.18,68.46,68.46,0,0,0,7.94-1.6,80,80,0,0,0,7.7-2.23,97,97,0,0,0,14.35-6.5l6.69-3.7c2.15-1.34,4.24-2.72,6.33-4,4.29-2.43,8-5.08,11.83-7.15,1-.59,1.88-1,2.92-1.62s2-1.25,3-1.79c2-1.13,4.06-2.26,6.09-3.27l.75-.39.38-.19c-.12.07.4-.22-.24.14l.26-.15,1.41-.79,2.8-1.56,5.59-3.07a144.64,144.64,0,0,1,21.92-9.9,63.24,63.24,0,0,1,19.32-3.51,43,43,0,0,1,7.33.54,43.85,43.85,0,0,1,5.34,1.25c2.56,1,3.91,1.64,3.91,1.64Z"></path><path fill="#ceae91" d="M1576.91,1201.52s-1.58.7-4.57,1.85c-.73.32-1.6.57-2.48,1l-2.65,1.38c-.94.48-1.93,1-3,1.48l-3.36,2c-2.37,1.26-4.85,3.12-7.54,4.88-2.65,2-5.5,4-8.48,6.46-6,4.74-12.63,10.49-20.41,16.77-3.92,3.11-8.09,6.37-12.75,9.54-2.3,1.63-4.7,3.19-7.31,4.68-1.28.78-2.6,1.48-3.93,2.2s-2.79,1.37-4.23,2a74,74,0,0,1-9,3.41,46.31,46.31,0,0,1-4.84,1.24l-2.47.53-2.74.54c-1.5.18-3,.31-4.54.44l-5.33.29-5,0-5-.3c-13.22-1.13-25.9-3.62-38.81-3.92a100.89,100.89,0,0,0-19.1.94c-3.36.53-6.27,1.17-9.44,2s-6.24,1.76-9.39,2.72c-6.28,2-12.66,4.09-19.37,5.85-3.35.87-6.79,1.62-10.32,2.19-1.75.31-3.54.52-5.34.72l-.67.08a1.81,1.81,0,0,1-.46,0l-.15,0-.31,0-1.22.09-2.44.16c-1.51.15-3.61.1-5.43.12s-3.68,0-5.44-.13-3.54-.16-5.28-.33-3.5-.26-5.21-.5a166.84,166.84,0,0,1-19.93-3.47,247.38,247.38,0,0,1-34.91-11.22l-15.15-6.06c-4.69-1.87-9.37-3.66-13.79-5.3a241.86,241.86,0,0,0-24.43-7.64,139.43,139.43,0,0,0-19.49-3.43c-2.78-.36-5.25-.31-7.47-.49-2.18,0-4.09-.08-5.62,0-3.08.12-4.8.14-4.8.14l-.81-2.5s1.46-.89,4.34-2.49c1.45-.8,3.31-1.53,5.5-2.53,1.11-.48,2.32-.88,3.62-1.32s2.71-.92,4.2-1.3a89.75,89.75,0,0,1,22.17-3.31,145,145,0,0,1,28.73,2.18c5.15.93,10.4,2,15.89,3.41,2.76.67,5.15,1.33,8,2.16,2.71.79,5.44,1.53,8.16,2.39,10.93,3.31,21.92,7.28,33.06,10.86,5.57,1.8,11.19,3.46,16.88,4.76,1.43.37,2.85.61,4.28.91s2.87.55,4.31.76,2.91.47,4.22.59l2,.24,1,.13,1.22.08,2.44.15,1.23.08.3,0,.15,0c-.53,0-.06,0-.15,0l.55,0c1.47.09,3,.13,4.46.16q4.52.12,9.27,0c6.33,0,13-.36,19.71-.53,3.37-.14,6.79-.22,10.21-.26s7-.08,10.24,0c7,.12,13.59.54,20.19.88,13.06.82,26,.69,37.55-2.09l4.23-1.09,4.05-1.26,3.6-1.38,4.19-1.72.26-.1c-.55.14-.09,0-.18,0l.11-.06.44-.23.87-.46,1.74-.87a38.18,38.18,0,0,0,3.42-1.77c2.25-1.32,4.48-2.4,6.66-3.81,1.08-.69,2.19-1.29,3.29-1.91s2.14-1.41,3.25-2c2.18-1.25,4.32-2.68,6.49-4s4.27-2.75,6.37-4.07,4.24-2.71,6.29-4a208.49,208.49,0,0,1,24.31-13.68A108.44,108.44,0,0,1,1547,1201a73.53,73.53,0,0,1,10.17-2.39c1.56-.26,3-.45,4.41-.64s2.83-.12,4.08-.14,2.39,0,3.42,0,1.86.2,2.66.32c3.17.46,4.87.78,4.87.78Z"></path><path fill="#ceae91" d="M1595.09 1275.38s-1.77 0-5-.27a22.91 22.91 0 00-2.71-.14l-3 .08c-1.11.07-2.17 0-3.46.12l-4 .36a117.61 117.61 0 00-19.51 3.94c-7.4 2.14-15.64 5.13-24.77 8.72l-14.43 5.69c-5.06 2-10.38 4-16.09 5.71-2.83.88-5.8 1.64-8.81 2.38l-1.13.27-.28.07c-.18 0 .19-.07-.43.12l-.14 0-.56.11-2.24.41c-1.5.29-3 .51-4.55.77-6 1.06-12.77 1.62-19.4 2.24-13.26.82-26.51 1.8-40 3.09-6.73.82-13.52 1.22-20.35 2.2-3.42.33-6.85.7-10.3 1.13s-6.9.84-10.36 1.17a249.69 249.69 0 01-41.53 1.7c-6.83-.35-13.6-.81-20.26-1.43s-13.22-1.31-19.67-2.07a321.7 321.7 0 01-36.61-6.9c-2.84-.68-5.75-1.49-8.38-2.18l-8-2.13c-5.09-1.36-10-2.63-14.72-3.71a163.69 163.69 0 00-25.45-4.16 72.16 72.16 0 00-19.43 1 23.63 23.63 0 00-3.79.92c-1.15.39-2.34.62-3.34 1-2 .82-3.84 1.43-5.2 2.14-2.74 1.42-4.32 2.2-4.32 2.2l-1.85-1.88s1-1.46 3-4.23a57.82 57.82 0 014.36-4.64 33.56 33.56 0 013.15-2.59 32.67 32.67 0 013.83-2.67 63.78 63.78 0 0122.16-8.59 121.78 121.78 0 0130-1.83c2.7.14 5.42.39 8.21.61s5.56.6 8.4 1 5.66.8 8.45 1.25 5.64.85 8.51 1.38c11.4 1.94 23.28 4.25 35.53 6.91s24.9 5.26 37.84 7.37 26 5 39.35 7.09c6.66 1.14 13.34 1.78 20 2.29a154.17 154.17 0 0020-.31c13.19-.79 25.94-4.28 37.56-8.82l8.44-3.53c2.71-1 5.62-2.63 8.41-3.84 1.41-.63 2.81-1.29 4.21-1.88l2.1-.9.52-.23.13 0c-.53.16-.08 0-.16 0l.24-.12 1-.46c2.66-1.22 5.28-2.37 7.93-3.51 5.27-2.22 10.58-4.29 15.84-6l7.82-2.59 7.73-2.26a135.73 135.73 0 0129.08-4.91 77.17 77.17 0 0123.23 2.34 52 52 0 018.23 2.87 31.31 31.31 0 015.59 2.85c2.77 1.77 4.22 2.79 4.22 2.79zM1635.67 1360.42s-2-.68-5.51-2.07-8.59-3.12-15.12-5.2a233.31 233.31 0 00-23.46-5.92 191.06 191.06 0 00-30.38-3.56l-4.2-.16c-1.41 0-2.84 0-4.28 0-2.88-.06-5.8.13-8.77.22-1.49.07-3 .27-4.48.34s-3 .18-4.55.38c-.76.09-1.52.16-2.29.22l-2.12.16c-1.68.21-3.37.45-5.08.6-6.16.77-12.85 1.63-19.83 2.64s-14.22 2.11-21.66 3.35c-14.93 2.4-30.29 5.77-46.16 8.39l-3 .47-3 .4c-2 .27-3.89.53-6 .73s-4.11.49-6.13.61-4.07.42-6.1.5c-8.16.56-16.42.94-24.68.89a256.56 256.56 0 01-48.72-4.63c-15.67-3-30.78-6.36-45.16-9.23s-28-5.5-40.8-7.47c-3.21-.41-6.36-.95-9.46-1.27-1.56-.21-3.1-.35-4.63-.48l-2.28-.23-.57-.06-.28 0c.06 0-.33 0 .09 0h-.15l-1.21-.08-4.79-.33-4.2-.17c-2.77-.14-5.69-.14-8.44-.11a157.58 157.58 0 00-30.25 3.09 130.94 130.94 0 00-22.82 6.8c-3.17 1.17-5.78 2.63-8.24 3.69l-6 3.21c-3.15 1.92-4.93 2.94-4.93 2.94l-1.85-1.87s1.15-1.69 3.49-4.85c1.21-1.53 2.83-3.31 4.74-5.46a87.35 87.35 0 017.24-6.69 99.84 99.84 0 0122.83-14.22 131.39 131.39 0 0133.6-10c3.2-.49 6.38-.94 9.83-1.26l5.23-.41 4.8-.23 1.21 0 1.53 0h2.61c1.75 0 3.51 0 5.28.1 3.54.09 7.12.27 10.74.57a245.68 245.68 0 0144 8.25c14.73 4.05 29.46 8.88 44.32 13.26s29.64 9.4 44.83 13a149.21 149.21 0 0023 3.62 111.56 111.56 0 0011.54.23c1.87 0 3.85-.2 5.82-.35.94-.08 2.06-.15 2.85-.26l2.85-.39c15.25-2 29.58-7.73 43.28-13.93 6.88-3.09 13.73-6.17 20.67-8.9a134.88 134.88 0 0121.36-6.53c1.67-.36 3.35-.65 5-1l2.9-.4c.9-.13 1.8-.24 2.69-.33 3.58-.44 7.12-.56 10.6-.67a138.44 138.44 0 0120 1.14 131.39 131.39 0 0133.6 9 120.57 120.57 0 0123.27 12.74 106.18 106.18 0 0113 10.83c2.67 2.75 4.05 4.28 4.05 4.28zM1659.74 1413.63l-1.35-.74c-.87-.48-2.15-1.29-3.84-2.21a105.74 105.74 0 00-14.47-6.15 89.62 89.62 0 00-23-4.25c-2.2-.13-4.48-.11-6.8-.09s-4.69.23-7.09.57a70.15 70.15 0 00-14.61 3.27c-1.25.31-2.41.9-3.64 1.34-.56.22-1.32.49-1.73.68-.67.3-1.55.66-2.06.93-2.32 1.08-5.11 2.45-7.85 3.92a125.57 125.57 0 01-19.64 8.93l-.18.06c-1 .33-.36.11-.61.2l-.32.08-.64.17-1.27.34-2.56.67-1.3.31-1.59.29-3.2.56c-1 .18-2.16.37-3.18.46l-3 .22a53.77 53.77 0 01-6.08.19 119.68 119.68 0 01-23.91-2.86c-15.57-3.37-30.68-8-46.38-10.4a151.12 151.12 0 00-23.71-2.14 219.76 219.76 0 00-23.93 1.2c-16 1.61-32.11 3.93-48.38 4.59s-32.69.71-48.83-1.33-31-6.2-44.24-10.4l-19.08-6.15-8.78-2.71-4.52-1.31-4-1.06a146.54 146.54 0 00-30.33-4.83 83.7 83.7 0 00-23.43 2 66.59 66.59 0 00-14.49 5.64l-4.92 3-1.9-1.82s1.15-1.73 3.6-5a57.34 57.34 0 0113.52-11.51c6.61-4.12 15.62-7.62 26.25-9.55s22.76-2.33 35.8-1l5 .61 4.67.68.59.08.29 0 .5.1 1.22.22 2.46.45 5 1c6.63 1.33 13.33 3 20.1 4.6 13.55 3.31 27.15 7.26 41 9.92 7 1.41 14.23 2.39 21.67 3.29s15.16 1.36 23 1.81c15.68.85 32 2.21 48.47 4.33 8.24 1 16.37 2.17 24.63 3.45 8.1 1.24 16.2 2.59 24.12 4 15.77 3 31.46 5 46.24 4.3a112.75 112.75 0 0020.83-2.73c1.64-.28 3.2-.77 4.75-1.18l2.31-.61c.76-.21 1.38-.51 2.07-.71l2-.66 1-.31 1.23-.5 2.47-.94 1.23-.47.61-.23.31-.12c-.15.06.56-.19-.31.1l.13 0c5.39-2.33 11-5.4 17.14-8.3 3.12-1.47 6.15-2.89 9.66-4.25.94-.38 1.55-.56 2.33-.85 1-.37 1.79-.56 2.69-.84 1.74-.5 3.42-1.12 5.15-1.45a77.94 77.94 0 0162.71 12.12 67.78 67.78 0 0112.84 12.19c2.3 3.16 3.41 4.92 3.41 4.92z"></path></g><rect width="60.44" height="113.13" x="1386.8" y="971.46" fill="url(#U)" transform="rotate(-176.47 1416.979 1028.073)"></rect><path fill="url(#V)" d="M1459.09,729.9s58.12,94.6,64.11,134.48c6.71,44.65-19.41,140.28-63.88,148.07-39,6.82-115.62-49-123.49-87-7-34.08-31.38-146.44-31.38-146.44Z"></path><path fill="url(#h)" d="M1358.19,801.83c-1.55,19.08-6.76,62.21-24.79,71.71,1.91,27.23-2.2,50.27,8.94,67.77-34.2-24.5-70.21-84.09-63.59-134.45,6-46,34.28-64.77,57.64-68.31C1352.78,736.07,1360.72,770.66,1358.19,801.83Z"></path><path fill="url(#W)" d="M1524.09,873.5c9.53-54.3-14.1-106-58.57-138.49-49.69-36.33-114.77-38.65-129.13,3.54-7.21,21.2-.3,44.11,22,60.89C1414.71,841.89,1519.85,798.24,1524.09,873.5Z"></path><path fill="#f6b98a" d="M1332.55,871.41c-12.16-20-24.71-7.39-25.56.82s19.08,63.08,28.11,44.29S1332.55,871.41,1332.55,871.41Z"></path><path fill="#57341b" d="M1371.61 855.12c7.54-22.6 43.51-30.48 53.61-9-2.76-1.23-2.23-1.32-5.21-2.49C1399.39 835 1379.37 850.42 1371.61 855.12zM1464.33 831.44c7.54-22.6 43.52-30.48 53.62-9-2.76-1.23-2.23-1.31-5.21-2.49C1492.11 811.3 1472.1 826.74 1464.33 831.44z"></path><path fill="#fff" d="M1468.39,882.26c20.38,10.62,39.2,8.69,52.14-.35,7.17-5,5.22-28.72-4.4-30.76C1496.74,847,1477.7,864.45,1468.39,882.26Z"></path><path fill="url(#i)" d="M1491.73,871.55c2.69,10.76,11.73,17.78,20.19,15.67s13.15-12.56,10.47-23.32-11.73-17.78-20.19-15.67S1489.05,860.78,1491.73,871.55Z"></path><path fill="#fff" d="M1505.32 879.27c6-2.08 2.63-11.72-3.36-9.63S1499.34 881.36 1505.32 879.27zM1508.08 867.51c4.51-1.58 2-8.84-2.53-7.27S1503.56 869.08 1508.08 867.51z"></path><path fill="#44250f" d="M1534,863.28c-4.89-2.62-11-8.64-28.12-7.65-24.26,4.53-31.67,18-37.5,26.63C1469.22,850.87,1516.56,832.35,1534,863.28Z"></path><path fill="#fff" d="M1374.75,907c21.84,11.38,42,9.31,55.88-.38,7.69-5.36,5.59-30.78-4.71-33C1405.13,869.23,1384.73,887.89,1374.75,907Z"></path><path fill="url(#X)" d="M1399.53,896.11c2.81,11.25,12.44,18.53,21.51,16.27s14.15-13.22,11.34-24.47-12.43-18.54-21.51-16.27S1396.72,884.86,1399.53,896.11Z"></path><path fill="#fff" d="M1414 903.87c6.4-2.24 2.81-12.57-3.61-10.33S1407.55 906.11 1414 903.87zM1416.92 891.25c4.83-1.68 2.12-9.47-2.72-7.78S1412.08 892.94 1416.92 891.25z"></path><path fill="#44250f" d="M1445.07,886.64c-5.23-2.81-11.79-9.26-30.13-8.2-26,4.86-33.94,19.32-40.19,28.54C1375.63,873.34,1426.38,853.48,1445.07,886.64Z"></path><g clip-path="url(#Y)"><rect width="34.62" height="64.6" x="1452.7" y="867.19" fill="#f9c9a3"></rect><path fill="#f9c9a3" d="M1488.41,908.14v24.74h-17.47v5.59a89.78,89.78,0,0,1-7.69-15.52c-8.76-22.84-7.21-44.68,3.45-48.77,5.33-2,11.94.74,18.3,6.88a61.77,61.77,0,0,1,9.18,11.56h-5.77Z"></path><path fill="#f9caa4" d="M1488.41,908.41v24.47h-17.05v4.77a86.18,86.18,0,0,1-7.42-15c-8.45-22-7-43.08,3.33-47,5.14-2,11.51.71,17.65,6.63a60.24,60.24,0,0,1,8.85,11.15h-5.36Z"></path><path fill="#f9caa5" d="M1488.41,908.67v24.21h-16.64v4a82.34,82.34,0,0,1-7.14-14.41c-8.13-21.21-6.7-41.48,3.21-45.28,5-1.9,11.08.68,17,6.39a57.47,57.47,0,0,1,8.52,10.73h-4.94Z"></path><path fill="#facba6" d="M1488.41,908.94v23.94h-16.22V936a79.81,79.81,0,0,1-6.87-13.85c-7.82-20.4-6.44-39.89,3.08-43.54,4.76-1.83,10.66.65,16.34,6.14a55.48,55.48,0,0,1,8.2,10.32h-4.53Z"></path><path fill="#facca7" d="M1488.41,909.2v23.68H1472.6v2.32a77.13,77.13,0,0,1-6.59-13.31c-7.51-19.58-6.18-38.29,3-41.8,4.57-1.75,10.23.63,15.68,5.9a52.72,52.72,0,0,1,7.87,9.91h-4.11Z"></path><path fill="#facda8" d="M1488.41,909.46v23.42H1473v1.5a73.89,73.89,0,0,1-6.32-12.75c-7.2-18.76-5.93-36.7,2.83-40.06,4.38-1.68,9.81.6,15,5.65a50.78,50.78,0,0,1,7.54,9.5h-3.7Z"></path><path fill="#facda9" d="M1488.41,909.73v23.15h-15v.68a70.64,70.64,0,0,1-6-12.19c-6.88-18-5.67-35.11,2.71-38.32,4.19-1.61,9.38.57,14.38,5.4a48.75,48.75,0,0,1,7.21,9.09h-3.28Z"></path><path fill="#fbceaa" d="M1488.41,910v22.89H1477.2v4.62a53.12,53.12,0,0,1-3.35-4.76,66.8,66.8,0,0,1-5.77-11.64c-6.57-17.13-5.41-33.51,2.59-36.57,4-1.54,8.95.55,13.72,5.15a46.67,46.67,0,0,1,6.89,8.67h-2.87Z"></path><path fill="#fbcfab" d="M1488.41,910.26v22.62h-7.59v7.3c-4.55-4.39-8.92-11.18-12-19.34-6.26-16.32-5.15-31.92,2.46-34.84,3.81-1.46,8.53.53,13.08,4.92a44.21,44.21,0,0,1,6.55,8.25h-2.45Z"></path><path fill="#fbcfac" d="M1488.41,910.52v22.36h-7.5V939c-4.32-4.17-8.48-10.63-11.45-18.38-6-15.5-4.9-30.31,2.34-33.09s17.92,7.54,23.87,23Z"></path><path fill="#fbd0ad" d="M1488.41,910.79v22.09H1481v4.84c-4.09-4-8-10.07-10.84-17.41-5.63-14.69-4.64-28.72,2.22-31.35s17,7.14,22.61,21.83Z"></path><path fill="#fbd1ae" d="M1488.41,911.05v21.83h-7.33v3.6c-3.86-3.73-7.58-9.5-10.24-16.44-5.32-13.87-4.38-27.12,2.09-29.61s16,6.75,21.36,20.62Z"></path><path fill="#fcd1af" d="M1488.41,911.32v21.56h-7.24v2.37a43.39,43.39,0,0,1-9.64-15.47c-5-13-4.12-25.53,2-27.87s15.09,6.35,20.1,19.41Z"></path><path fill="#fcd2b0" d="M1488.41,911.58v21.3l2.65,4.83c-5.71,2.19-14.15-6-18.84-18.2s-3.87-23.93,1.85-26.12,14.15,6,18.84,18.19Z"></path><path fill="#fcd3b2" d="M1488.41,911.84v21l2.08,3.35c-5.33,2-13.2-5.56-17.58-17s-3.61-22.34,1.72-24.38,13.21,5.55,17.59,17Z"></path><path fill="#fcd4b3" d="M1488.41,912.11v20.77l1.52,1.87c-5,1.9-12.27-5.16-16.33-15.76s-3.35-20.75,1.6-22.65,12.26,5.16,16.33,15.77Z"></path><path fill="#fdd4b4" d="M1488.41,912.37v20.51l.95.39c-4.57,1.76-11.32-4.76-15.07-14.55s-3.1-19.15,1.48-20.9,11.32,4.76,15.07,14.55Z"></path><path fill="#fdd5b5" d="M1488.41,912.64V931.8h.38c-4.19,1.6-10.37-4.37-13.81-13.34s-2.84-17.56,1.35-19.16,10.38,4.36,13.82,13.34Z"></path><path fill="#fdd6b6" d="M1489.46,912.9c3.13,8.16,2.58,16-1.23,17.42s-9.44-4-12.56-12.13-2.58-16,1.23-17.42S1486.33,904.74,1489.46,912.9Z"></path><path fill="#fdd6b7" d="M1488.77,913.17c2.82,7.34,2.32,14.36-1.11,15.67s-8.49-3.57-11.3-10.91-2.32-14.36,1.1-15.68S1486,905.82,1488.77,913.17Z"></path><ellipse cx="1482.56" cy="915.55" fill="#fdd7b8" rx="5.91" ry="12.66" transform="rotate(-20.98 1482.547 915.548)"></ellipse><path fill="#fed8b9" d="M1487.39,913.7c2.19,5.71,1.8,11.17-.86,12.19s-6.6-2.78-8.79-8.49-1.81-11.17.86-12.19S1485.2,908,1487.39,913.7Z"></path><path fill="#fed8ba" d="M1486.7,914c1.88,4.9,1.55,9.57-.74,10.45s-5.66-2.38-7.53-7.28-1.55-9.57.73-10.45S1484.82,909.07,1486.7,914Z"></path><path fill="#fed9bb" d="M1486,914.22c1.57,4.08,1.29,8-.61,8.71s-4.72-2-6.29-6.06-1.28-8,.62-8.71S1484.45,910.15,1486,914.22Z"></path><path fill="#fedabc" d="M1485.32,914.49c1.25,3.26,1,6.38-.49,7s-3.77-1.59-5-4.85-1-6.39.5-7S1484.07,911.23,1485.32,914.49Z"></path><path fill="#ffdbbd" d="M1484.63,914.75c.94,2.45.78,4.79-.37,5.23s-2.83-1.19-3.77-3.64-.77-4.79.37-5.22S1483.69,912.31,1484.63,914.75Z"></path><path fill="#ffdbbe" d="M1483.94,915c.63,1.63.52,3.19-.24,3.48s-1.89-.79-2.52-2.42-.51-3.2.25-3.49S1483.32,913.39,1483.94,915Z"></path><path fill="#ffdcbf" d="M1483.25,915.28c.32.82.26,1.6-.12,1.74s-.94-.39-1.26-1.21-.25-1.59.13-1.74S1482.94,914.47,1483.25,915.28Z"></path></g><path fill="#fffef0" d="M1424,948.89s44.52,10.51,69.27-7.71c1.34,9.16-20.09,24.78-24.2,24.89C1457.7,966.38,1433.11,956.42,1424,948.89Z"></path><path fill="#db7058" d="M1306,1812.61c29.89,38.9,105.13,67.36,153.6,59.8-64.21-30.2-186.86-99.27-158.58-274.28-12.49,27.61-22.76,53.11-26.82,70C1264.76,1707.25,1281.46,1780.73,1306,1812.61Z"></path><rect width="108.2" height="33.43" x="1360.37" y="1456.09" fill="#db765f" transform="rotate(-170.5 1414.41 1472.852)"></rect><path fill="url(#Z)" d="M1250.49,1465.16c92.51,46.68,119.74,81.65,157.33,106.19s28.9,22.57-9.4,10c-33.8-11.07-125.93-23.56-138-32.06-32.33-22.74-48.67-67.56-47.58-76.52S1221.55,1450.55,1250.49,1465.16Z"></path><path fill="url(#aa)" d="M1407.82,1571.35c8.73-9.49,27.22-16.65,30.84-19.9,2.89,4.36-8.38,11.31-6.05,10.5,21.35-7.44,25.61-2.61,35.78,3.88,2.79,1.78.64,4.26-11.13-1.36,12.6,6,18.6,15.09,9.25,12.58,3,.82,1.15,4.76-3.11,4.25,4.61,4.37-10.47,4.18-12.49,5.29-25.38,6.8-38.34,6.16-41.88.69C1402.91,1577.84,1407.82,1571.35,1407.82,1571.35Z"></path><path fill="url(#ab)" d="M1625.64,1879.4c15.12,114.59-181.12,430.37-204.65,492.22-1.78,4.67-11.85.1-10.6-4.17,11.37-39.08,57.18-168.14,66.32-223.87,17.77-108.38,29-204.65,57.91-253.51C1543.79,1744.31,1670.28,1768.53,1625.64,1879.4Z"></path><path fill="url(#ac)" d="M1514.83,1883.65c-25.74,174.72-211.4,449.16-253.21,484.69,37.32-64.28,54.88-166.44,78.44-236.84,33.17-99.1,40.9-190.72,83.13-246.39C1447,1741,1570.4,1777.84,1514.83,1883.65Z"></path><path fill="#c95e49" d="M1283.09,2338.19c6.51,6.59-20.66,53.24-35,51.14-5.84-.85-11.62-22.59-7.67-27C1250.16,2351.6,1278.54,2333.59,1283.09,2338.19Z"></path><path fill="#f6b98a" d="M717.89,396.24c39.1,9.34,74.51,140.6,75.24,240.6s89.19,125.52,60.25,168.75-205.3,57.51-205,7,32.71-150.14,42.37-201c13.48-71.06-41-139.69-24.09-172.24C690.13,394.22,717.89,396.24,717.89,396.24Z"></path><path fill="#f6b98a" d="M844.55,343.11c37,21.13,19.86,27.81,32.4,96.93s50.6,65.69,50.56,71.53S895.83,533,886,541.55c-.9,21,2.09,73.94-36.9,100.71C824.69,659,741.6,591.08,739.35,569.38s-.18-63-.18-63-2.65-52.58,0-73.57C711.62,400.36,683.39,251.12,844.55,343.11Z"></path><path fill="#423123" d="M857.4,367.18c18.78,20.61,38-29.67,28-43.45s-31.18-40.66-75.9-36.92S647.78,353.12,640.61,377.9s40.6,174.31,42.9,189,27.11.1,27.71-12.55,7.63-126.3,27.9-121.56,18.49,56.56,25.41,60.76,37.63-39.77,19.56-76.51S717.88,367.69,745,353.63,848.21,357.08,857.4,367.18Z"></path><path fill="#f6b98a" d="M739.17,506.34c-6.86,2.61-29.88,2.78-36.08-7.72s-28.33-59.93-10.74-73.33,37.4,2,46.77,7.48C758.54,458.88,756.35,499.79,739.17,506.34Z"></path><path fill="#423123" d="M854.78,408.08c4.42,1.83,8.74,8.17,10.27,23.31-1.67-5.58-7-21.66-12.18-22-10.13,7.68-25.86,31.4-37.8,44.31,1.55,1.13,4.6,5.63,5.22,10.36-1.21-4.35-4.28-8.68-6.09-9.43a14.68,14.68,0,0,1,3.86,7.29c-.68-1.9-4-6.09-4.95-6.15-3,3-5.69,5.22-7.92,6.1-3.66,1.45-3.93,13.15-.25,12.45,25.31-4.81,58.47-33.65,61-37.23C870.33,430.9,861.49,404.16,854.78,408.08Z"></path><path fill="#fffef0" d="M852.37,461.69,811.79,485.9l5.46,10s34,10,50.82,1.61C875.71,493.74,852.37,461.69,852.37,461.69Z"></path><path fill="url(#ad)" d="M864.92,468.68c4.4,6.72,5.36,17.82,1.7,28.46-5.52,3.36-16.27,5.83-24.23,3.41a31.44,31.44,0,0,1-3.86-19.5C840.76,460.93,855.51,454.32,864.92,468.68Z"></path><path fill="#fff" d="M850.75 477.06l-4.35-.58a15.06 15.06 0 01.92-3.73l4.06 1.67A11 11 0 00850.75 477.06zM847 488.21c-.18-.81-.33-1.64-.45-2.48l4.34-.63c.11.73.24 1.46.39 2.17zm-.73-5c-.08-1-.12-2-.12-3 0-.42 0-.82 0-1.23l4.38.17c0 .35 0 .7 0 1.06 0 .85 0 1.73.11 2.62zM850.36 495.81a11.45 11.45 0 01-2.08-3.46l4.05-1.67a7.49 7.49 0 001.26 2.17z"></path><path fill="#423123" d="M872.24,464.86c-15,9.47-41.92,19.5-59.84,22.94L811.17,484c16.3-6,34-20.55,48.78-29.17Z"></path><path fill="#fffef0" d="M817.69,540.38s32.15,24,63.7,23.59c-5.21,13.71-18.27,21.88-24.78,22C841.71,586.39,824.55,557.86,817.69,540.38Z"></path><path fill="#4f332b" d="M699.34,2319.69c.3,22.76,5.5,22,23.27,20.1,43.58-4.76,65.4-15.54,61.48-20.11-4.18-4.87-47.54,12.79-71.94-5.6-11.12-8.39-6.28-42.19-6.28-42.19Z"></path><g clip-path="url(#ae)"><rect width="229.76" height="641.04" x="478.32" y="792.31" fill="#48515e"></rect><path fill="#48515e" d="M709.17,1269.59v164.86H558.44v4.7c-1.05-2.71-2.08-5.44-3.11-8.18q-3.09-8.23-6.05-16.66c-7.9-22.49-15.11-46-21.48-70.39-50.94-194.94-28.55-369.62,50-390.14,39.27-10.27,85.16,20,127.59,77.1q4,5.36,7.91,11h-4.14Z"></path><path fill="#47505d" d="M709.17,1271.43v163H567v5.81Q560.9,1425,555.26,1409c-7.51-21.37-14.37-43.74-20.42-66.9-48.41-185.29-27.13-351.31,47.53-370.82,37.34-9.76,81,19,121.28,73.28q3.78,5.1,7.52,10.48h-2Z"></path><path fill="#464f5c" d="M709.17,1273.27v161.18H575.27v6c-1-2.37-1.95-4.77-2.91-7.17q-5.77-14.46-11.12-29.66c-7.12-20.25-13.62-41.45-19.35-63.41-45.9-175.64-25.73-333,45.05-351.5,35.39-9.25,76.73,18,115,69.46q7.17,9.66,14.17,20.43h-6.9Z"></path><path fill="#454e5b" d="M709.17,1275.11v159.34H583.28v5.37q-2.82-6.64-5.55-13.47-5.46-13.65-10.51-28c-6.73-19.14-12.87-39.18-18.29-59.93-43.37-166-24.31-314.71,42.58-332.18,33.44-8.74,72.51,17,108.64,65.65q6.76,9.12,13.39,19.3h-4.37Z"></path><path fill="#444d5a" d="M709.17,1277v157.5H591v3.83c-.9-2-1.8-4.12-2.68-6.2q-2.67-6.25-5.23-12.69-5.15-12.86-9.9-26.39c-6.34-18-12.12-36.9-17.23-56.44-40.84-156.33-22.89-296.4,40.11-312.86,31.49-8.23,68.29,16,102.32,61.83q6.38,8.6,12.61,18.18h-1.84Z"></path><path fill="#434c59" d="M709.17,1278.79v155.66H598.44v1.45A639.72,639.72,0,0,1,563,1334.72c-38.33-146.68-21.48-278.1,37.62-293.54,29.56-7.73,64.08,15,96,58,4,5.37,7.94,11.07,11.84,17q2.92,4.5,5.8,9.21h-5.11Z"></path><path fill="#424b58" d="M709.17,1280.63v153.82H608v3.42q-2.47-5.16-4.88-10.47a598.18,598.18,0,0,1-33.09-94.52c-35.8-137-20.06-259.8,35.15-274.22,27.61-7.22,59.86,14,89.68,54.19a343.12,343.12,0,0,1,21.81,33.53h-7.53Z"></path><path fill="#414a57" d="M709.17,1282.47v152H617.05V1438q-4.71-9.26-9.19-19.14A556,556,0,0,1,577.11,1331c-33.28-127.37-18.66-241.49,32.67-254.9,25.66-6.71,55.64,13,83.36,50.37a319.62,319.62,0,0,1,20.27,31.17h-4.24Z"></path><path fill="#404956" d="M709.17,1284.31v150.14H625.46v2q-2.22-4.11-4.4-8.38-4.35-8.55-8.48-17.69a513.78,513.78,0,0,1-28.43-81.2c-30.76-117.71-17.24-223.19,30.2-235.58,23.71-6.2,51.42,12.05,77,46.55A294.28,294.28,0,0,1,710.12,1169h-1Z"></path><path fill="#3f4855" d="M709.17,1286.15v148.3H637.45v5.88q-2.13-3.46-4.21-7.1c-5.55-9.66-10.9-20.15-16-31.33a471.59,471.59,0,0,1-26.1-74.54C563,1219.3,575.37,1122.48,618.91,1111.1c21.78-5.69,47.21,11.06,70.73,42.74a269.39,269.39,0,0,1,17.19,26.44q4.17,7.24,8.17,15.1h-5.83Z"></path><path fill="#3e4653" d="M709.17,1288v146.45H644.25v.12q-3.91-6-7.72-12.63c-5.06-8.81-9.93-18.36-14.53-28.54a430,430,0,0,1-23.76-67.88c-25.72-98.41-14.41-186.58,25.24-196.94,19.83-5.18,43,10.07,64.41,38.92a246.55,246.55,0,0,1,15.66,24.08q3.8,6.6,7.43,13.75h-1.81Z"></path><path fill="#3d4552" d="M709.17,1289.84v144.61H661.25v7.07q-3.69-4.27-7.31-9.17c-19.32-26-37.06-64.3-48.66-108.67-23.19-88.75-13-168.28,22.77-177.62,17.88-4.68,38.77,9.08,58.09,35.1,9.66,13,18.92,29.08,27.22,47.45h-4.19Z"></path><path fill="#3c4451" d="M709.17,1291.68v142.77H675.43v5.43q-3.31-2.67-6.63-5.93a132.17,132.17,0,0,1-13.11-15.26c-17.22-23.19-33-57.3-43.36-96.85-20.67-79.1-11.59-150,20.29-158.3,15.93-4.17,34.55,8.09,51.77,31.28a232,232,0,0,1,24.26,42.29q2.77,6.15,5.38,12.66h-4.86Z"></path><path fill="#3b4350" d="M709.17,1293.52v133.75h3.27a23.18,23.18,0,0,1-9.55,5.23c-28,7.31-65.38-43.06-83.52-112.5s-10.17-131.67,17.81-139c14-3.66,30.34,7.11,45.45,27.46a203.26,203.26,0,0,1,21.31,37.13c3.24,7.19,6.3,14.83,9.12,22.84h-3.89Z"></path><path fill="#3a424f" d="M709.17,1295.36v106.71h3.91c-3.78,6.84-8.73,11.37-14.75,13-24.1,6.29-56.29-37.07-71.92-96.86s-8.75-113.37,15.34-119.66,56.29,37.07,71.91,96.86Z"></path><path fill="#39414e" d="M706.62,1297.2c6.55,25.07,8.39,48.83,6.06,67s-8.82,30.71-18.92,33.35c-20.2,5.27-47.2-31.09-60.3-81.23s-7.34-95,12.86-100.33S693.52,1247.06,706.62,1297.2Z"></path><ellipse cx="670.04" cy="1306.76" fill="#38404d" rx="30.53" ry="75.76" transform="rotate(-14.64 670.256 1307.054)"></ellipse><ellipse cx="670.04" cy="1306.76" fill="#373f4c" rx="23.25" ry="57.69" transform="rotate(-14.64 670.256 1307.054)"></ellipse><path fill="#363e4b" d="M685.49,1302.72c5.53,21.17,3.1,40.15-5.43,42.37s-19.94-13.12-25.47-34.3-3.1-40.14,5.43-42.37S680,1281.55,685.49,1302.72Z"></path><path fill="#353d4a" d="M678.44,1304.56c3,11.52,1.69,21.84-3,23s-10.85-7.14-13.86-18.66-1.68-21.84,3-23S675.43,1293,678.44,1304.56Z"></path></g><path fill="url(#k)" d="M1048.54,2338.35c-12.71-26.83-87.78-433.2-80.45-453.86s-60.88-322.43-63-436.11c-.15-8.35-1.48-15.1-3.76-20.49-3.64-23.91-10.52-56.54-23.1-82.85-22.74-47.54-189.41-47-189.41-47-70.27,119.87-57.75,173.85-57.75,173.85s9.13,28.63,44.84,53.94c3.34,2.37,10.72,13.34,9.26,24.09-9.35,69,21.13,270.13,8.77,349.75-13.45,86.57-26.5,184.18,4.2,438.07,13.43,2.89,39.1-5.13,44.19-15.13,23.81-236.58,60.29-515.56,60.29-654.73,35.54,115.46,79.51,163.09,79.93,221.33,1.53,213.11,62.33,235.68,112.66,453.75C1018.94,2332.9,1016.84,2345.07,1048.54,2338.35Z"></path><path fill="url(#af)" d="M610.65,1425.31,554,851.49,567,801.6l114.24-152,218.53,80.92,62.44,194.9S929,1246.27,928.89,1442.58c-83.65,35.34-128.3,25.33-224.67,0C651.81,1428.79,610.65,1425.31,610.65,1425.31Z"></path><path fill="#fffef0" d="M692,603l-25.28,60.51,182.78,49.86s-51.4-67.33-56.41-76.5C764,645.05,702,623.61,692,603Z"></path><path fill="#48515e" d="M899.72,730.54c88.11,143.08,231.59,362.62,231.59,362.62l-134.22,15.37S882.51,996.33,852,950.6C767.23,823.65,837.22,709.38,899.72,730.54Z"></path><g clip-path="url(#ag)"><rect width="236.92" height="92.61" x="639.88" y="637.92" fill="#48515e"></rect><path fill="#48515e" d="M833.31,640.89c5.57,21.34,1.25,43.1-10.26,61.05a87.4,87.4,0,0,1-22.29,23.51,91.41,91.41,0,0,1-14.54,8.61v-2.43h-81.6v1.25c-18.81-10-33.23-26.89-38.81-48.22a74.3,74.3,0,0,1-1.27-31.79,77.63,77.63,0,0,1,4.29-15.15q1.45-3.68,3.27-7.2v6.31H830.81v-3.72A74.28,74.28,0,0,1,833.31,640.89Z"></path><path fill="#47505d" d="M829.16,642c10.6,40.56-16.45,82.75-60.41,94.23v-4.58H736.26v6.91a83.21,83.21,0,0,1-29.42-9.13C689,719.89,675.26,703.85,670,683.58a70.52,70.52,0,0,1-1.21-30.22,73.85,73.85,0,0,1,4.08-14.4c.92-2.32,1.95-4.61,3.1-6.85v4.72H826.79v-2.25A71,71,0,0,1,829.16,642Z"></path><path fill="#464f5c" d="M825,643.06c10,38.45-15.59,78.44-57.26,89.33a81.15,81.15,0,0,1-58.68-6.45c-17-9-29.94-24.23-35-43.45A67,67,0,0,1,673,653.85a70.54,70.54,0,0,1,3.86-13.65c.88-2.2,1.86-4.37,2.95-6.49v3.12h140v-7.4A66.67,66.67,0,0,1,825,643.06Z"></path><path fill="#454e5b" d="M820.87,644.14c9.49,36.34-14.74,74.13-54.12,84.42s-79-10.82-88.49-47.15c-4.75-18.17-1.07-36.7,8.73-52v7.4H816v-5.56A63.21,63.21,0,0,1,820.87,644.14Z"></path><path fill="#444d5a" d="M816.72,645.23c8.94,34.22-13.88,69.81-51,79.51s-74.41-10.2-83.35-44.42c-4.47-17.1-1-34.56,8.22-49v5.46H812.09V633.1A59.53,59.53,0,0,1,816.72,645.23Z"></path><path fill="#434c59" d="M812.57,646.31c8.39,32.11-13,65.51-47.82,74.6s-69.81-9.56-78.2-41.67c-4.19-16-.94-32.43,7.71-45.93v3.52h114v-1.9A56,56,0,0,1,812.57,646.31Z"></path><path fill="#424b58" d="M808.42,647.4c7.84,30-12.16,61.19-44.67,69.68s-65.22-8.93-73-38.92c-3.92-15-.88-30.3,7.2-42.91v1.58H804.37v-.07A52.1,52.1,0,0,1,808.42,647.4Z"></path><path fill="#414a57" d="M804.28,648.48c7.28,27.88-11.31,56.88-41.53,64.78s-60.62-8.31-67.91-36.19a50.1,50.1,0,0,1,6.7-39.88c.94-1.46,2-2.89,3-4.27v3.91h90.26V630A48.56,48.56,0,0,1,804.28,648.48Z"></path><path fill="#404956" d="M800.13,649.56c6.73,25.77-10.45,52.57-38.38,59.87s-56-7.67-62.76-33.44a46.33,46.33,0,0,1,6.19-36.86,52.2,52.2,0,0,1,6-7.65v5.35h80.23v-4.39A44.78,44.78,0,0,1,800.13,649.56Z"></path><path fill="#3f4855" d="M796,650.65c6.18,23.65-9.59,48.25-35.23,55s-51.43-7-57.61-30.69a42.52,42.52,0,0,1,5.68-33.84,48,48,0,0,1,5.51-7v2.79H788v-1.9A41.05,41.05,0,0,1,796,650.65Z"></path><path fill="#3e4653" d="M791.84,651.73c5.62,21.54-8.74,43.95-32.09,50s-46.84-6.42-52.46-28A38.68,38.68,0,0,1,712.46,643a44,44,0,0,1,11.26-11.87v5.69h55.2v-5a39.28,39.28,0,0,1,5.63,5.61A37.65,37.65,0,0,1,791.84,651.73Z"></path><path fill="#3d4552" d="M787.69,652.81c5.07,19.43-7.88,39.64-28.94,45.14s-42.24-5.78-47.32-25.21A35,35,0,0,1,716.1,645a39.83,39.83,0,0,1,10.15-10.71v2.59H770v-6A34.91,34.91,0,0,1,787.69,652.81Z"></path><path fill="#3c4451" d="M783.54,653.9c4.52,17.31-7,35.32-25.79,40.23S720.1,689,715.58,671.66s7-35.33,25.79-40.23v5.4H767.8v-2.5A31.1,31.1,0,0,1,783.54,653.9Z"></path><ellipse cx="749.56" cy="662.78" fill="#3b4350" rx="30.83" ry="28.45" transform="rotate(-14 764.298 664.516)"></ellipse><ellipse cx="749.56" cy="662.78" fill="#3a424f" rx="26.55" ry="24.49" transform="rotate(-14.64 749.754 662.93)"></ellipse><ellipse cx="749.56" cy="662.78" fill="#39414e" rx="22.26" ry="20.54" transform="rotate(-14.64 749.682 662.882)"></ellipse><path fill="#38404d" d="M767,658.23c2.32,8.86-3.59,18.08-13.2,20.59s-19.26-2.64-21.58-11.5,3.59-18.08,13.2-20.59S764.64,649.37,767,658.23Z"></path><path fill="#373f4c" d="M762.8,659.32c1.77,6.74-2.73,13.76-10,15.67s-14.67-2-16.43-8.75,2.73-13.77,10-15.68S761,652.57,762.8,659.32Z"></path><path fill="#363e4b" d="M758.66,660.4c1.21,4.63-1.88,9.46-6.91,10.77s-10.07-1.38-11.29-6,1.88-9.45,6.91-10.77S757.45,655.76,758.66,660.4Z"></path><path fill="#353d4a" d="M754.51,661.48a5.13,5.13,0,1,1-6.14-3.27A4.93,4.93,0,0,1,754.51,661.48Z"></path></g><path fill="url(#ah)" d="M1048.54,977.32c82.76,17.14,169.84,119.58,217,155.32,29.78,22.57-10.64,69-20.83,66.8-83.2-17.66-216.36-46.75-258-102.54C911.51,996.07,1048.54,977.32,1048.54,977.32Z"></path><path fill="#4f332b" d="M995.26,2344.08c31.88-4.51,124.59,11.62,124.59,5.59,0-6.42-81.17.67-86-28.51C1023.87,2323.53,1004.68,2334,995.26,2344.08Z"></path><path fill="#7e848c" d="M800.53,1668.41c-6-26.42-14.36-56.61-21.06-80.87-4.87-17.64-8.81-31.89-10.2-38.77-10.35-.75-38.4-4.52-39.58-8.76a2.36,2.36,0,0,1,1-2.62l1.22,1.82,2.08.16a1.87,1.87,0,0,0-.67-1.46c2.17,1.43,22.53,5.89,37.89,6.58a2.2,2.2,0,0,1,2.06,1.84c1,5.76,5.14,20.89,10.43,40.05,6.71,24.29,15.06,54.53,21.11,81Z"></path><path fill="url(#ai)" d="M666.21,787.34c-24.86,156.16,32.16,320.71,26.31,375.14s-19,152.52-26.31,163.42-51.18-73.28-62.87-168.62-51.18-323.56,0-358.59S666.21,787.34,666.21,787.34Z"></path><path fill="#fffef0" d="M1265.3,1138.32c-14.48-9.3-30.11,43-15,43.54C1271.82,1182.71,1276.14,1145.28,1265.3,1138.32Z"></path><path fill="url(#aj)" d="M1271,1140.87c51.25,6,63.3,25.32,72.81,47.65,2,4.75-.66,13.88-6.4,3.78,3,17.23-10.67,23.47-20.38,14.77-27.58-24.7-64.63-17.62-68.4-34.81S1255.28,1139.05,1271,1140.87Z"></path><polygon fill="#e49d4b" points="1060.62 1571.56 929.16 2389.4 943.12 2389.4 1104.41 1576.63 1060.62 1571.56"></polygon><polygon fill="#e49d4b" points="1878.32 1571.56 2009.78 2389.4 1995.82 2389.4 1834.53 1576.63 1878.32 1571.56"></polygon><rect width="1023.18" height="86.05" x="952.78" y="1545.31" fill="url(#ak)"></rect><path fill="#ffddb5" d="M1032.94 1564.32c0 3.09-1.93 5.59-4.32 5.59s-4.32-2.5-4.32-5.59 1.94-5.59 4.32-5.59S1032.94 1561.24 1032.94 1564.32zM1032.94 1607.63c0 3.09-1.93 5.59-4.32 5.59s-4.32-2.5-4.32-5.59 1.94-5.58 4.32-5.58S1032.94 1604.55 1032.94 1607.63zM1912 1565c0 3.08-1.94 5.58-4.32 5.58s-4.32-2.5-4.32-5.58 1.93-5.59 4.32-5.59S1912 1561.92 1912 1565zM1912 1608.32c0 3.09-1.94 5.59-4.32 5.59s-4.32-2.5-4.32-5.59 1.93-5.58 4.32-5.58S1912 1605.24 1912 1608.32z"></path><rect width="73.66" height="97.23" x="1741.62" y="1452.85" fill="#a6f5f7" rx="2.76"></rect><path fill="#a6f5f7" d="M1803.84,1532.15l-.18-13.79c11.95-.16,25.11-13.55,25.36-22.85.24-8.82-12.92-11-20.79-11.54l.92-13.76c30.95,2,33.85,18.63,33.66,25.66C1842.35,1513.26,1822.32,1531.91,1803.84,1532.15Z"></path><ellipse cx="1234.98" cy="2379.1" rx="629.07" ry="63.36" style="mix-blend-mode:multiply" fill="url(#l)"></ellipse><ellipse cx="2501.63" cy="2389.18" rx="672.05" ry="63.36" style="mix-blend-mode:multiply" fill="url(#al)"></ellipse></g></svg>