<svg xmlns="http://www.w3.org/2000/svg" viewBox="0 0 136 136"><path fill="#f37c5a" d="M128.2 71.8c0 31.5-23.6 56-52.6 59.7C39.4 136 7.8 107.8 7.8 71.8c0-7.7 1.4-15 4.1-21.8 2.5-6.5 6.1-12.4 10.6-17.6 11.3-13 27.7-20.7 45.5-20.7 33.7 0 60.2 27.3 60.2 60.1z"/><path fill="#fdda7f" d="M61.9 22.5v-3.7l-3.5-.5c-.1-.8-.3-1.5-.6-2.2l2.7-2.2-1.8-3.2-3.2 1.3c-.5-.6-1.1-1.1-1.6-1.6l1.3-3.3L52 5.3 49.8 8c-.7-.3-1.5-.5-2.2-.6L47 4h-3.7l-.5 3.5c-.8.1-1.5.3-2.3.6l-2.2-2.7-3.2 1.8 1.3 3.2c-.6.5-1.1 1.1-1.6 1.6l-3.3-1.3-1.8 3.2 2.7 2.2c-.3.7-.5 1.5-.6 2.2l-3.5.5v3.7l3.7.5c.1.8.3 1.5.6 2.2l-2.8 2.2 1.8 3.2 3.3-1.3c.5.6 1 1.1 1.6 1.6l-1.3 3.2 3.2 1.8 2.2-2.7c.7.3 1.5.5 2.3.6l.5 3.5H47l.5-3.5c.8-.1 1.5-.3 2.2-.6l2.2 2.7 3.2-1.8-1.3-3.2c.6-.5 1.1-1 1.6-1.6l3.2 1.3 1.8-3.2-2.7-2.2c.3-.7.5-1.5.6-2.3l3.6-.4zM45.2 28c-4.1 0-7.4-3.3-7.4-7.4s3.3-7.4 7.4-7.4c4.1 0 7.4 3.3 7.4 7.4S49.3 28 45.2 28z"/><path fill="#dad9d8" d="M121.7 86.3V94h-1.5v-7L105 65.6V47l3.1-1.8-.2.4-.7.9h.4l.5-.1v.1l-.9 1.2h.4l.5-.1v.1l-.9 1.3.4-.1.5-.1v.1l-.9 1.3.4-.1h.5l-.9 1.3.4-.1h.5l-.9 1.3h.4l.5-.1-.9 1.3h.4l.5-.1v.1l-.9 1.2h.4l.5-.1v.1l-.9 1.3.4-.1.5-.1v.1l-.9 1.3.4-.1h.5l-.9 1.3.4-.1h.5l-.9 1.3h.4l.5-.1v.1l-1.6 1.5V65z"/><path fill="#f3f3f3" d="M121.7 86.3V94h-1.1v-7l-15.2-21.4V47l2.5-1.4-.7.9h.9l-.9 1.2h.9l-.9 1.3.4-.1v.1l.5-.1-.9 1.3.4-.1v.1l.5-.1-.9 1.3.4-.1v.1l.5-.1-.9 1.3h.4l.5-.1-.9 1.3h.9l-.9 1.2h.9l-.9 1.3.4-.1v.1l.5-.1-.9 1.3.4-.1v.1l.5-.1-.9 1.3.4-.1v.1l.5-.1-.9 1.3h.9l-1.6 1.5V65zM81.3 15.9c-3.5 0-6.7 1.4-8.9 3.7-1.9 1.9-3.2 4.5-3.6 7.3-.1.8.6 1.6 1.4 1.6.7 0 1.3-.5 1.4-1.2.6-3.4 3.5-6 7.1-6 4 0 7.2 3.2 7.2 7.2h12.2V15.9H81.3zM108.2 15.9h2.1v12.6h-2.1z"/><path fill="#474f59" d="M88.2 28.5h7.3v38.2h-7.3z"/><path fill="#25313b" d="M89.8 28.5h5.7v38.2h-5.7z"/><path fill="#474f59" d="M108.2 15.9c-1.5 1.2-3.2 1.8-5.1 1.8-1.9 0-3.6-.7-5.1-1.8v6.3h10.2v-6.3z"/><path fill="#25313b" d="M97.9 22.2v6.3c1.5-1.2 3.2-1.8 5.1-1.8 1.9 0 3.6.7 5.1 1.8v-6.3H97.9z"/><path fill="#f6bb53" d="m98.3 61.4-.8 2.3v27.7c0 2.9-2.2 5.3-5 5.6h-.7c-3-.1-5.5-2.5-5.5-5.6v-1.9c0-.9.3-1.7.9-2.4.4-.5.7-1.1.7-1.8s-.3-1.3-.7-1.8c-.6-.7-.9-1.5-.9-2.4 0-.9.3-1.7.9-2.4.4-.5.7-1.1.7-1.8s-.3-1.3-.7-1.8c-.6-.7-.9-1.5-.9-2.4s.3-1.7.9-2.4c.4-.5.7-1.1.7-1.8s-.3-1.3-.7-1.8c-.6-.7-.9-1.5-.9-2.4v-.9l-.8-2.3h12.8z"/><path fill="#fdda7f" d="m98.3 61.4-.8 2.3v27.7c0 2.9-2.2 5.3-5 5.6-2.8-.3-5-2.7-5-5.5v-1.9c0-.9.3-1.7.9-2.4.4-.5.7-1.1.7-1.8s-.2-1.3-.7-1.8c-.6-.7-.9-1.5-.9-2.4 0-.9.3-1.7.9-2.4.4-.5.7-1.1.7-1.8s-.2-1.3-.7-1.8c-.6-.7-.9-1.5-.9-2.4s.3-1.7.9-2.4c.4-.5.7-1.1.7-1.8s-.2-1.3-.7-1.8c-.6-.7-.9-1.5-.9-2.4v-.9l-.8-2.3h11.6z"/><path fill="#7dcedc" d="M81.2 32.5v98c-1.9.4-3.7.7-5.7 1-2.5.3-5 .5-7.6.5-4.3 0-8.5-.5-12.5-1.3-7.6-1.6-14.7-4.7-20.9-8.8-1.7-1.1-3.3-2.4-4.9-3.6-.3-.2-.6-.5-.8-.7-1.3-1.1-2.4-2.2-3.6-3.4l-.7-.7c-1-1-1.9-2.1-2.8-3.1-.2-.2-.4-.5-.6-.7-.9-1.1-1.7-2.2-2.5-3.3-.2-.2-.3-.5-.5-.7-2.5-3.7-4.7-7.7-6.3-12V32.5h69.4z"/><path fill="#25313b" d="M11.9 32.5h69.4v5.8H11.9z"/><path fill="#dad9d8" d="M103.2 86.3V94h1.5v-7l15.2-21.4V47l-3.1-1.8.3.4.6.9h-.4l-.5-.1v.1l.9 1.2h-.4l-.5-.1v.1l.9 1.3-.4-.1-.5-.1v.1l.9 1.3-.4-.1h-.5l.9 1.3-.4-.1h-.5l.9 1.3h-.4l-.5-.1.9 1.3h-.4l-.5-.1v.1l.9 1.2h-.4l-.5-.1v.1l.9 1.3-.4-.1-.5-.1v.1l.9 1.3-.4-.1h-.5l.9 1.3-.4-.1h-.5l.9 1.3h-.4l-.5-.1.1.1 1.5 1.5V65z"/><path fill="#f3f3f3" d="M103.2 86.3V94h1.2v-7l15.1-21.4V47l-2.4-1.4.6.9h-.9l.9 1.2h-.9l.9 1.3-.4-.1v.1l-.5-.1.9 1.3-.4-.1v.1l-.5-.1.9 1.3-.4-.1v.1l-.5-.1.9 1.3h-.4l-.5-.1.9 1.3h-.9l.9 1.2h-.9l.9 1.3-.4-.1v.1l-.5-.1.9 1.3-.4-.1v.1l-.5-.1.9 1.3-.4-.1v.1l-.5-.1.9 1.3h-.8l1.5 1.5V65z"/><path fill="#f6bb53" d="M105.2 92v30.6c0 1-.7 1.9-1.7 2h-.3c-1.1 0-1.9-.9-1.9-2V96.1c0-.4.2-.7.5-.8.5-.2.8-.7.8-1.3 0-.6-.3-1-.8-1.3-.3-.1-.5-.5-.5-.8h3.9z"/><path fill="#fdda7f" d="M105.2 92v30.6c0 1-.7 1.9-1.7 2-1-.1-1.7-1-1.7-2V96.1c0-.4.2-.7.5-.8.5-.2.8-.7.8-1.3 0-.6-.3-1-.8-1.3-.3-.1-.5-.5-.5-.8h3.4z"/><path fill="#f6bb53" d="M119.7 92v30.6c0 1 .7 1.9 1.7 2h.3c1.1 0 1.9-.9 1.9-2V96.1c0-.4-.2-.7-.5-.8-.5-.2-.8-.7-.8-1.3 0-.6.3-1 .8-1.3.3-.1.5-.5.5-.8h-3.9z"/><path fill="#fdda7f" d="M119.7 92v30.6c0 1 .7 1.9 1.7 2 1-.1 1.7-1 1.7-2V96.1c0-.4-.2-.7-.5-.8-.5-.2-.8-.7-.8-1.3 0-.6.3-1 .8-1.3.3-.1.5-.5.5-.8h-3.4z"/><circle cx="16.4" cy="35.4" r="2" fill="#fff"/><circle cx="22.5" cy="35.4" r="2" fill="#fff"/><circle cx="28.5" cy="35.4" r="2" fill="#fff"/><path fill="#474f59" d="M38.5 43.1H17.1c-.2 0-.3-.2-.3-.3s.2-.3.3-.3h21.4c.2 0 .3.2.3.3s-.1.3-.3.3z"/><path fill="#fff" d="M52.6 43.1H40.8c-.2 0-.3-.2-.3-.3s.2-.3.3-.3h11.8c.2 0 .3.2.3.3s-.1.3-.3.3zM31.4 47H17.1c-.2 0-.3-.2-.3-.3 0-.2.2-.3.3-.3h14.3c.2 0 .3.2.3.3.1.2-.1.3-.3.3z"/><path fill="#474f59" d="M47.9 47H33.6c-.2 0-.3-.2-.3-.3 0-.2.2-.3.3-.3h14.3c.2 0 .3.2.3.3.1.2-.1.3-.3.3z"/><path fill="#fff" d="M42.8 51H17.1c-.2 0-.3-.2-.3-.3s.2-.3.3-.3h25.7c.2 0 .3.2.3.3s-.2.3-.3.3zM72.5 51H45.3c-.2 0-.3-.2-.3-.3s.2-.3.3-.3h27.2c.2 0 .3.2.3.3s-.1.3-.3.3zM25 55h-8c-.2 0-.3-.2-.3-.3s.2-.3.3-.3h8c.2 0 .3.2.3.3s-.1.3-.3.3z"/><path fill="#474f59" d="M35.4 55h-8c-.2 0-.3-.2-.3-.3s.2-.3.3-.3h8c.2 0 .3.2.3.3s-.1.3-.3.3z"/><path fill="#fff" d="M45.8 55h-8c-.2 0-.3-.2-.3-.3s.2-.3.3-.3h8c.2 0 .3.2.3.3s-.2.3-.3.3z"/><path fill="#474f59" d="M56.1 55h-8c-.2 0-.3-.2-.3-.3s.2-.3.3-.3h8c.2 0 .3.2.3.3s-.1.3-.3.3z"/><path fill="#fff" d="M31.7 58.9H17.1c-.2 0-.3-.2-.3-.3s.2-.3.3-.3h14.6c.2 0 .3.2.3.3s-.1.3-.3.3z"/><path fill="#474f59" d="M53.8 58.9H33.5c-.2 0-.3-.2-.3-.3s.2-.3.3-.3h20.3c.2 0 .3.2.3.3s-.1.3-.3.3z"/><path fill="#fff" d="M60.1 62.9h-43c-.2 0-.3-.2-.3-.3s.2-.3.3-.3h43c.2 0 .3.2.3.3s-.1.3-.3.3z"/><path fill="#474f59" d="M42.8 66.9H17.1c-.2 0-.3-.2-.3-.3s.2-.3.3-.3h25.7c.2 0 .3.2.3.3s-.2.3-.3.3z"/><path fill="#fff" d="M63.5 66.9H45.3c-.2 0-.3-.2-.3-.3s.2-.3.3-.3h18.2c.2 0 .3.2.3.3s-.1.3-.3.3zM33.2 70.8H17.1c-.2 0-.3-.2-.3-.3s.2-.3.3-.3h16.1c.2 0 .3.2.3.3s-.1.3-.3.3z"/><path fill="#474f59" d="M38.9 70.8h-4.2c-.2 0-.3-.2-.3-.3s.2-.3.3-.3h4.2c.2 0 .3.2.3.3s-.1.3-.3.3z"/><path fill="#fff" d="M44.8 70.8h-4.2c-.2 0-.3-.2-.3-.3s.2-.3.3-.3h4.2c.2 0 .3.2.3.3s-.1.3-.3.3zM59.7 70.8H46.6c-.2 0-.3-.2-.3-.3s.2-.3.3-.3h13.1c.2 0 .3.2.3.3s-.1.3-.3.3zM23.5 74.8h-6.4c-.2 0-.3-.2-.3-.3s.2-.3.3-.3h6.4c.2 0 .3.2.3.3s-.1.3-.3.3zM69.4 74.8H25.5c-.2 0-.3-.2-.3-.3s.2-.3.3-.3h43.9c.2 0 .3.2.3.3s-.2.3-.3.3zM34.7 78.8H17.1c-.2 0-.3-.2-.3-.3s.2-.3.3-.3h17.6c.2 0 .3.2.3.3s-.1.3-.3.3z"/><path fill="#474f59" d="M63.5 78.8H36.9c-.2 0-.3-.2-.3-.3s.2-.3.3-.3h26.5c.2 0 .3.2.3.3s0 .3-.2.3z"/><path fill="#fff" d="M38.5 82.5H17.1c-.2 0-.3-.2-.3-.3 0-.2.2-.3.3-.3h21.4c.2 0 .3.2.3.3 0 .1-.1.3-.3.3zM52.6 82.5H40.8c-.2 0-.3-.2-.3-.3 0-.2.2-.3.3-.3h11.8c.2 0 .3.2.3.3 0 .1-.1.3-.3.3zM31.4 86.5H17.1c-.2 0-.3-.2-.3-.3s.2-.3.3-.3h14.3c.2 0 .3.2.3.3s-.1.3-.3.3zM47.9 86.5H33.6c-.2 0-.3-.2-.3-.3s.2-.3.3-.3h14.3c.2 0 .3.2.3.3s-.1.3-.3.3z"/><path fill="#474f59" d="M42.8 90.4H17.1c-.2 0-.3-.2-.3-.3s.2-.3.3-.3h25.7c.2 0 .3.2.3.3s-.2.3-.3.3z"/><path fill="#fff" d="M72.5 90.4H45.3c-.2 0-.3-.2-.3-.3s.2-.3.3-.3h27.2c.2 0 .3.2.3.3s-.1.3-.3.3zM25 94.4h-8c-.2 0-.3-.2-.3-.3s.2-.3.3-.3h8c.2 0 .3.2.3.3s-.1.3-.3.3zM35.4 94.4h-8c-.2 0-.3-.2-.3-.3s.2-.3.3-.3h8c.2 0 .3.2.3.3s-.1.3-.3.3zM45.8 94.4h-8c-.2 0-.3-.2-.3-.3s.2-.3.3-.3h8c.2 0 .3.2.3.3s-.2.3-.3.3zM56.1 94.4h-8c-.2 0-.3-.2-.3-.3s.2-.3.3-.3h8c.2 0 .3.2.3.3s-.1.3-.3.3zM31.7 98.4H17.1c-.2 0-.3-.2-.3-.3s.2-.3.3-.3h14.6c.2 0 .3.2.3.3s-.1.3-.3.3z"/><path fill="#474f59" d="M53.8 98.4H33.5c-.2 0-.3-.2-.3-.3s.2-.3.3-.3h20.3c.2 0 .3.2.3.3s-.1.3-.3.3z"/><path fill="#fff" d="M60.1 102.3h-43c-.2 0-.3-.2-.3-.3s.2-.3.3-.3h43c.2 0 .3.2.3.3s-.1.3-.3.3z"/><path fill="#474f59" d="M43.1 106c0 .2-.2.3-.3.3H18.7c-.2-.2-.3-.5-.5-.7h24.5c.2 0 .4.2.4.4z"/><path fill="#fff" d="M63.5 106.3H45.3c-.2 0-.3-.2-.3-.3s.2-.3.3-.3h18.2c.2 0 .3.2.3.3s-.1.3-.3.3zM33.6 109.9c0 .2-.2.3-.3.3H21.7c-.2-.2-.4-.5-.6-.7h12.1c.2.1.4.2.4.4zM38.9 110.3h-4.2c-.2 0-.3-.2-.3-.3s.2-.3.3-.3h4.2c.2 0 .3.2.3.3s-.1.3-.3.3z"/><path fill="#474f59" d="M44.8 110.3h-4.2c-.2 0-.3-.2-.3-.3s.2-.3.3-.3h4.2c.2 0 .3.2.3.3s-.1.3-.3.3z"/><path fill="#fff" d="M59.7 110.3H46.6c-.2 0-.3-.2-.3-.3s.2-.3.3-.3h13.1c.2 0 .3.2.3.3s-.1.3-.3.3zM69.4 114.2H25.5c-.2 0-.3-.2-.3-.3s.2-.3.3-.3h43.9c.2 0 .3.2.3.3s-.2.3-.3.3z"/><path fill="#474f59" d="M35 117.9c0 .2-.2.3-.3.3h-5c-.3-.2-.6-.5-.8-.7h5.8c.2 0 .3.2.3.4z"/><path fill="#fff" d="M63.5 118.2H36.9c-.2 0-.3-.2-.3-.3 0-.2.2-.3.3-.3h26.5c.2 0 .3.2.3.3.1.2 0 .3-.2.3z"/><circle cx="112.5" cy="46.4" r="4.3" fill="#474f59"/><path fill="#fff" d="M109.4 46.4V46l1.7-.8v.4l-1.3.6 1.3.6v.4l-1.7-.8zM113.1 44.7h.4l-1.6 3.4h-.4l1.6-3.4zM115.6 46v.5l-1.7.8v-.4l1.3-.6-1.3-.6v-.4l1.7.7z"/></svg>