<svg xmlns="http://www.w3.org/2000/svg" viewBox="0 0 340 340"><path fill="#ff8080" d="M322.633 46.676a7.521 7.521 0 0 1-4.678 6.956 31.005 31.005 0 0 1-10.845 1.849c-6.013.224-11.476-2.4-17.075-4.451-12.034-4.418-19.572-.412-19.572-.412V11.605a85.182 85.182 0 0 1 19.572 2.643c5.758 1.552 11.065 4.675 17.075 4.452 3.838-.143 8.062-.408 12.109-2.421a2.391 2.391 0 0 1 3.414 2.176Z"/><ellipse cx="266.463" cy="89.631" fill="#ff8080" rx="19.39" ry="11.507"/><path fill="#d4ecff" d="M40.35 303.876a4 4 0 0 1-4-4v-74.142a4 4 0 0 1 8 0v74.142a4 4 0 0 1-4 4Z"/><path fill="#bddeff" d="M236.289 260.9a3.981 3.981 0 0 1-1.251-.2L45.55 198.373a4 4 0 0 1 2.5-7.6L237.538 253.1a4 4 0 0 1-1.249 7.8Z"/><path fill="#7aaeed" d="M264.77 266.734a3.993 3.993 0 0 1-3.15-1.53l-87.7-111.776a4 4 0 0 1 6.293-4.939l87.7 111.776a4 4 0 0 1-3.144 6.469Z"/><path fill="#497fce" d="M166.977 132.628a4 4 0 0 1-1.445-7.731l70.98-27.489a4 4 0 1 1 2.889 7.46l-70.98 27.489a3.967 3.967 0 0 1-1.444.271Z"/><path fill="#ff8080" d="M266.463 89.631a4 4 0 0 1-4-4V11.605h8v74.026a4 4 0 0 1-4 4Z"/><circle cx="40.35" cy="305.413" r="22.982" fill="#d4ecff"/><circle cx="40.35" cy="193.542" r="16.251" fill="#bddeff"/><circle cx="264.767" cy="264.517" r="14.708" fill="#7aaeed"/><circle cx="163.373" cy="130.002" r="13.694" fill="#497fce"/></svg>